<svg width="31" height="31" viewBox="0 0 31 31" fill="none" xmlns="http://www.w3.org/2000/svg">
<circle cx="15.3448" cy="15.3794" r="15.3448" fill="#F6D0CF"/>
<path d="M13.841 13.4232H14.7182C14.9689 13.4232 15.2135 13.4053 15.4522 13.3695C15.6909 13.3337 15.9057 13.2681 16.0967 13.1726C16.2996 13.0652 16.4607 12.922 16.5801 12.743C16.6994 12.552 16.7591 12.3073 16.7591 12.009C16.7591 11.627 16.6039 11.3108 16.2936 11.0601C15.9953 10.8095 15.6253 10.6842 15.1837 10.6842C14.766 10.6842 14.4199 10.7976 14.1454 11.0243C13.8709 11.2511 13.6918 11.5316 13.6083 11.8657L10.6544 11.2571C10.7976 10.7081 11.0125 10.2426 11.2989 9.86069C11.5853 9.46684 11.9255 9.15056 12.3193 8.91187C12.7132 8.67317 13.1488 8.50011 13.6262 8.3927C14.1155 8.27335 14.6287 8.21368 15.1658 8.21368C15.7267 8.21368 16.2638 8.28529 16.777 8.42851C17.3021 8.55979 17.7616 8.77462 18.1555 9.07299C18.5493 9.35942 18.8596 9.72344 19.0864 10.165C19.3251 10.6066 19.4444 11.1318 19.4444 11.7404C19.4444 12.4446 19.2594 13.0473 18.8895 13.5486C18.5195 14.0498 17.9824 14.3721 17.2783 14.5153V14.569C17.6602 14.6167 17.9944 14.7301 18.2808 14.9091C18.5792 15.0882 18.8298 15.309 19.0327 15.5715C19.2356 15.8341 19.3907 16.1325 19.4981 16.4666C19.6056 16.8008 19.6593 17.1529 19.6593 17.5229C19.6593 18.1554 19.5339 18.7104 19.2833 19.1878C19.0446 19.6652 18.7164 20.065 18.2987 20.3872C17.8929 20.6975 17.4095 20.9303 16.8486 21.0854C16.2996 21.2406 15.7148 21.3182 15.0942 21.3182C13.9604 21.3182 12.9817 21.0556 12.1582 20.5305C11.3466 20.0053 10.8096 19.1759 10.547 18.042L13.3756 17.3797C13.471 17.8332 13.662 18.1912 13.9484 18.4538C14.2468 18.7164 14.6824 18.8476 15.2553 18.8476C15.8401 18.8476 16.2698 18.6985 16.5443 18.4001C16.8307 18.0898 16.9739 17.6959 16.9739 17.2185C16.9739 16.8605 16.8963 16.586 16.7412 16.395C16.598 16.1921 16.407 16.0429 16.1683 15.9475C15.9296 15.852 15.6611 15.7983 15.3627 15.7863C15.0643 15.7625 14.766 15.7505 14.4676 15.7505H13.841V13.4232Z" fill="#1D2939"/>
</svg>
