<svg width="31" height="32" viewBox="0 0 31 32" fill="none" xmlns="http://www.w3.org/2000/svg">
<circle cx="15.3448" cy="16.0343" r="15.3448" fill="#F6D0CF"/>
<path d="M10.8513 18.9118L15.7745 14.49C16.0251 14.2632 16.2757 14.0066 16.5264 13.7202C16.777 13.4337 16.9023 13.0996 16.9023 12.7176C16.9023 12.288 16.7472 11.9538 16.4369 11.7151C16.1265 11.4645 15.7625 11.3392 15.3448 11.3392C14.8435 11.3392 14.4497 11.4943 14.1633 11.8046C13.8888 12.1149 13.7336 12.4968 13.6978 12.9504L11.0125 12.7534C11.0483 12.097 11.1855 11.5301 11.4242 11.0527C11.6629 10.5634 11.9792 10.1576 12.373 9.83537C12.7669 9.51313 13.2264 9.27443 13.7515 9.11928C14.2886 8.95219 14.8674 8.86865 15.488 8.86865C16.0609 8.86865 16.598 8.95219 17.0992 9.11928C17.6005 9.27443 18.0361 9.51313 18.4061 9.83537C18.7761 10.1457 19.0625 10.5395 19.2654 11.0169C19.4802 11.4943 19.5877 12.0493 19.5877 12.6818C19.5877 13.0876 19.5459 13.4576 19.4623 13.7918C19.3788 14.114 19.2594 14.4124 19.1043 14.6869C18.9611 14.9495 18.788 15.1941 18.5851 15.4209C18.3822 15.6476 18.1614 15.8684 17.9227 16.0833L14.0737 19.3952H19.6951V21.7583H10.8513V18.9118Z" fill="#1D2939"/>
</svg>
