<svg width="897" height="352" viewBox="0 0 897 352" fill="none" xmlns="http://www.w3.org/2000/svg">
<path d="M-1007.5 72.4351L-1011.2 78.4575L-1004.14 78.6533L-1007.5 72.4351ZM207.819 338.674L207.676 338.078L207.819 338.674ZM504.753 72.4345L504.159 72.2871L504.753 72.4345ZM435.493 109.754L434.899 109.902L436.094 109.641L435.493 109.754ZM332.14 36.021L331.663 35.637L331.595 35.7225L331.56 35.8267L332.14 36.021ZM895.736 23.4085L889.894 27.3906L896.264 30.4587L895.736 23.4085ZM-1008.13 76.2217C-1008.11 77.0665 -1008.06 77.91 -1008 78.7521L-1006.78 78.6612C-1006.84 77.8374 -1006.88 77.0124 -1006.91 76.1861L-1008.13 76.2217ZM-1007.75 81.2743C-1007.65 82.1136 -1007.53 82.9516 -1007.4 83.7881L-1006.19 83.5888C-1006.32 82.77 -1006.44 81.95 -1006.54 81.1288L-1007.75 81.2743ZM-1006.93 86.2933C-1006.75 87.1269 -1006.56 87.959 -1006.35 88.7896L-1005.16 88.4869C-1005.37 87.673 -1005.56 86.8578 -1005.73 86.0415L-1006.93 86.2933ZM-1005.67 91.2327C-1005.44 92.0124 -1005.19 92.7907 -1004.92 93.5676L-1003.76 93.1716C-1004.02 92.4093 -1004.27 91.646 -1004.5 90.8815L-1005.67 91.2327ZM-1004.08 95.8944C-1003.78 96.6686 -1003.47 97.4414 -1003.14 98.2129L-1002.01 97.7326C-1002.33 96.9746 -1002.64 96.2155 -1002.93 95.4553L-1004.08 95.8944ZM-1002.1 100.523C-1001.74 101.292 -1001.37 102.059 -1000.98 102.825L-999.885 102.268C-1000.27 101.514 -1000.64 100.759 -1000.99 100.004L-1002.1 100.523ZM-999.756 105.118C-999.334 105.881 -998.897 106.643 -998.445 107.403L-997.392 106.777C-997.838 106.028 -998.269 105.277 -998.684 104.526L-999.756 105.118ZM-997.148 109.513C-996.72 110.188 -996.28 110.862 -995.828 111.535L-994.811 110.853C-995.257 110.189 -995.691 109.524 -996.114 108.858L-997.148 109.513ZM-994.437 113.55C-993.962 114.221 -993.475 114.89 -992.976 115.559L-991.995 114.826C-992.488 114.166 -992.969 113.504 -993.438 112.842L-994.437 113.55ZM-991.445 117.56C-990.923 118.226 -990.389 118.891 -989.844 119.555L-988.898 118.778C-989.437 118.121 -989.965 117.464 -990.481 116.805L-991.445 117.56ZM-988.175 121.543C-987.607 122.205 -987.027 122.865 -986.437 123.524L-985.525 122.707C-986.11 122.054 -986.683 121.4 -987.245 120.745L-988.175 121.543ZM-984.654 125.474C-984.117 126.05 -983.571 126.626 -983.016 127.2L-982.135 126.35C-982.685 125.78 -983.226 125.21 -983.759 124.639L-984.654 125.474ZM-981.327 128.921C-980.755 129.494 -980.175 130.066 -979.586 130.637L-978.734 129.758C-979.318 129.191 -979.893 128.624 -980.46 128.056L-981.327 128.921ZM-977.795 132.347C-977.19 132.917 -976.576 133.485 -975.954 134.053L-975.129 133.148C-975.746 132.585 -976.355 132.02 -976.956 131.455L-977.795 132.347ZM-974.063 135.753C-973.424 136.319 -972.777 136.883 -972.122 137.448L-971.323 136.52C-971.974 135.959 -972.616 135.398 -973.251 134.836L-974.063 135.753ZM-970.132 139.137C-969.46 139.699 -968.78 140.261 -968.093 140.821L-967.319 139.872C-968.003 139.315 -968.678 138.757 -969.345 138.198L-970.132 139.137ZM-966.088 142.435C-965.468 142.927 -964.842 143.419 -964.21 143.911L-963.459 142.944C-964.087 142.455 -964.71 141.966 -965.326 141.476L-966.088 142.435ZM-962.294 145.382C-961.65 145.872 -960.999 146.361 -960.342 146.85L-959.611 145.867C-960.265 145.381 -960.912 144.895 -961.554 144.407L-962.294 145.382ZM-958.353 148.314C-957.684 148.801 -957.009 149.287 -956.327 149.773L-955.616 148.776C-956.294 148.293 -956.966 147.808 -957.632 147.324L-958.353 148.314ZM-954.266 151.228C-953.572 151.713 -952.873 152.197 -952.168 152.68L-951.476 151.669C-952.178 151.188 -952.874 150.707 -953.564 150.225L-954.266 151.228ZM-950.034 154.127C-949.317 154.608 -948.594 155.089 -947.865 155.57L-947.192 154.547C-947.918 154.069 -948.638 153.59 -949.352 153.11L-950.034 154.127ZM-945.661 157.008C-944.94 157.475 -944.214 157.94 -943.482 158.405L-942.825 157.371C-943.554 156.908 -944.278 156.444 -944.996 155.98L-945.661 157.008ZM-941.454 159.682C-940.774 160.107 -940.089 160.532 -939.399 160.956L-938.758 159.913C-939.445 159.491 -940.127 159.067 -940.805 158.644L-941.454 159.682ZM-937.317 162.227C-936.618 162.65 -935.915 163.072 -935.207 163.494L-934.58 162.442C-935.285 162.022 -935.986 161.601 -936.682 161.179L-937.317 162.227ZM-933.07 164.758C-932.354 165.179 -931.632 165.599 -930.907 166.018L-930.294 164.958C-931.017 164.54 -931.736 164.121 -932.45 163.702L-933.07 164.758ZM-928.716 167.275C-927.982 167.694 -927.243 168.112 -926.5 168.529L-925.9 167.461C-926.641 167.045 -927.378 166.629 -928.11 166.211L-928.716 167.275ZM-924.257 169.779C-923.505 170.196 -922.748 170.611 -921.987 171.026L-921.401 169.951C-922.16 169.538 -922.914 169.123 -923.664 168.708L-924.257 169.779ZM-919.692 172.27C-918.923 172.684 -918.149 173.097 -917.371 173.51L-916.797 172.428C-917.573 172.017 -918.345 171.604 -919.112 171.192L-919.692 172.27ZM-915.209 174.65C-914.498 175.023 -913.783 175.395 -913.064 175.767L-912.501 174.679C-913.218 174.309 -913.931 173.937 -914.641 173.565L-915.209 174.65ZM-910.898 176.881C-910.173 177.252 -909.444 177.623 -908.712 177.993L-908.16 176.9C-908.89 176.531 -909.617 176.161 -910.341 175.791L-910.898 176.881ZM-906.505 179.101C-905.766 179.47 -905.023 179.839 -904.278 180.207L-903.736 179.109C-904.48 178.742 -905.221 178.374 -905.958 178.006L-906.505 179.101ZM-902.03 181.31C-901.277 181.677 -900.521 182.044 -899.762 182.41L-899.23 181.307C-899.988 180.942 -900.742 180.576 -901.493 180.209L-902.03 181.31ZM-897.474 183.507C-896.708 183.873 -895.939 184.237 -895.167 184.602L-894.644 183.494C-895.415 183.131 -896.183 182.766 -896.947 182.402L-897.474 183.507ZM-892.839 185.693C-892.06 186.056 -891.278 186.419 -890.492 186.782L-889.979 185.67C-890.763 185.308 -891.544 184.946 -892.322 184.583L-892.839 185.693ZM-888.125 187.867C-887.341 188.225 -886.553 188.583 -885.762 188.94L-885.258 187.824C-886.048 187.468 -886.834 187.111 -887.617 186.753L-888.125 187.867ZM-883.556 189.931C-882.818 190.261 -882.077 190.591 -881.333 190.92L-880.837 189.8C-881.58 189.472 -882.319 189.143 -883.056 188.813L-883.556 189.931ZM-879.094 191.906C-878.345 192.235 -877.594 192.563 -876.84 192.89L-876.352 191.767C-877.105 191.44 -877.855 191.113 -878.603 190.785L-879.094 191.906ZM-874.569 193.872C-873.81 194.199 -873.048 194.525 -872.283 194.851L-871.803 193.724C-872.566 193.399 -873.327 193.073 -874.085 192.747L-874.569 193.872ZM-869.981 195.827C-869.212 196.152 -868.439 196.477 -867.664 196.801L-867.191 195.672C-867.965 195.348 -868.736 195.024 -869.505 194.699L-869.981 195.827ZM-865.331 197.773C-864.551 198.096 -863.769 198.419 -862.983 198.742L-862.518 197.609C-863.302 197.287 -864.083 196.965 -864.862 196.642L-865.331 197.773ZM-860.62 199.709C-859.83 200.03 -859.037 200.352 -858.242 200.673L-857.783 199.537C-858.577 199.217 -859.369 198.896 -860.158 198.575L-860.62 199.709ZM-855.848 201.634C-855.048 201.954 -854.245 202.274 -853.44 202.593L-852.988 201.455C-853.793 201.136 -854.594 200.817 -855.393 200.497L-855.848 201.634ZM-851.047 203.538C-850.294 203.834 -849.539 204.129 -848.782 204.425L-848.337 203.284C-849.093 202.989 -849.847 202.694 -850.599 202.398L-851.047 203.538ZM-846.505 205.309C-845.744 205.603 -844.981 205.897 -844.216 206.191L-843.777 205.048C-844.541 204.754 -845.303 204.461 -846.063 204.167L-846.505 205.309ZM-841.914 207.071C-841.144 207.364 -840.373 207.656 -839.599 207.949L-839.167 206.803C-839.939 206.511 -840.71 206.219 -841.478 205.926L-841.914 207.071ZM-837.273 208.824C-836.495 209.116 -835.715 209.407 -834.934 209.697L-834.507 208.55C-835.287 208.259 -836.066 207.969 -836.843 207.677L-837.273 208.824ZM-832.582 210.569C-831.797 210.858 -831.009 211.148 -830.219 211.437L-829.798 210.288C-830.587 209.999 -831.374 209.709 -832.158 209.42L-832.582 210.569ZM-827.844 212.304C-827.05 212.593 -826.254 212.881 -825.457 213.169L-825.041 212.017C-825.838 211.729 -826.633 211.441 -827.426 211.153L-827.844 212.304ZM-823.058 214.031C-822.256 214.318 -821.453 214.604 -820.647 214.891L-820.237 213.737C-821.042 213.451 -821.844 213.165 -822.645 212.878L-823.058 214.031ZM-818.224 215.749C-817.415 216.034 -816.604 216.319 -815.79 216.604L-815.386 215.448C-816.198 215.164 -817.009 214.879 -817.817 214.594L-818.224 215.749ZM-813.358 217.453C-812.591 217.719 -811.822 217.986 -811.051 218.252L-810.651 217.095C-811.421 216.829 -812.19 216.563 -812.956 216.296L-813.358 217.453ZM-808.734 219.049C-807.959 219.315 -807.184 219.58 -806.406 219.845L-806.011 218.686C-806.788 218.421 -807.563 218.156 -808.336 217.891L-808.734 219.049ZM-804.069 220.638C-803.288 220.902 -802.506 221.166 -801.722 221.43L-801.332 220.269C-802.115 220.006 -802.897 219.742 -803.677 219.478L-804.069 220.638ZM-799.365 222.219C-798.578 222.482 -797.789 222.744 -796.999 223.006L-796.613 221.844C-797.403 221.582 -798.191 221.32 -798.977 221.057L-799.365 222.219ZM-794.622 223.792C-793.829 224.053 -793.034 224.314 -792.237 224.575L-791.856 223.411C-792.652 223.151 -793.446 222.89 -794.239 222.629L-794.622 223.792ZM-789.841 225.356C-789.041 225.617 -788.24 225.876 -787.437 226.136L-787.06 224.971C-787.863 224.711 -788.664 224.452 -789.463 224.192L-789.841 225.356ZM-785.023 226.913C-784.216 227.172 -783.409 227.43 -782.599 227.688L-782.227 226.522C-783.036 226.264 -783.843 226.006 -784.648 225.747L-785.023 226.913ZM-780.166 228.462C-779.354 228.719 -778.54 228.976 -777.725 229.233L-777.357 228.065C-778.172 227.808 -778.985 227.552 -779.797 227.294L-780.166 228.462ZM-775.274 230.002C-774.455 230.258 -773.635 230.514 -772.814 230.769L-772.45 229.6C-773.271 229.345 -774.09 229.089 -774.908 228.833L-775.274 230.002ZM-770.468 231.496C-769.686 231.738 -768.903 231.979 -768.119 232.22L-767.759 231.049C-768.543 230.809 -769.325 230.568 -770.106 230.326L-770.468 231.496ZM-765.761 232.942C-764.974 233.182 -764.186 233.422 -763.396 233.662L-763.041 232.49C-763.83 232.251 -764.617 232.011 -765.404 231.771L-765.761 232.942ZM-761.023 234.38C-760.231 234.619 -759.437 234.858 -758.642 235.096L-758.291 233.924C-759.085 233.685 -759.878 233.447 -760.669 233.208L-761.023 234.38ZM-756.254 235.811C-755.456 236.049 -754.658 236.286 -753.858 236.524L-753.509 235.35C-754.309 235.112 -755.107 234.875 -755.904 234.637L-756.254 235.811ZM-751.454 237.234C-750.651 237.471 -749.847 237.707 -749.042 237.943L-748.698 236.768C-749.502 236.532 -750.305 236.296 -751.107 236.06L-751.454 237.234ZM-746.623 238.65C-745.816 238.886 -745.007 239.121 -744.197 239.355L-743.856 238.179C-744.665 237.945 -745.474 237.71 -746.28 237.475L-746.623 238.65ZM-741.763 240.059C-740.95 240.293 -740.136 240.526 -739.322 240.76L-738.984 239.583C-739.799 239.349 -740.612 239.116 -741.424 238.882L-741.763 240.059ZM-736.873 241.459C-736.056 241.692 -735.237 241.925 -734.417 242.157L-734.083 240.979C-734.903 240.747 -735.721 240.514 -736.537 240.282L-736.873 241.459ZM-731.954 242.853C-731.132 243.084 -730.309 243.316 -729.484 243.546L-729.154 242.367C-729.978 242.137 -730.801 241.905 -731.622 241.674L-731.954 242.853ZM-727.105 244.211C-726.314 244.432 -725.522 244.652 -724.729 244.871L-724.402 243.691C-725.194 243.472 -725.986 243.252 -726.776 243.032L-727.105 244.211ZM-722.346 245.53C-721.551 245.749 -720.755 245.968 -719.958 246.186L-719.634 245.005C-720.431 244.787 -721.226 244.568 -722.021 244.349L-722.346 245.53ZM-717.563 246.841C-716.763 247.059 -715.963 247.277 -715.161 247.495L-714.841 246.313C-715.642 246.095 -716.441 245.878 -717.24 245.66L-717.563 246.841ZM-712.754 248.146C-711.95 248.363 -711.146 248.579 -710.34 248.796L-710.023 247.613C-710.828 247.397 -711.632 247.18 -712.435 246.964L-712.754 248.146ZM-707.921 249.444C-707.113 249.659 -706.305 249.875 -705.495 250.09L-705.181 248.906C-705.99 248.691 -706.798 248.476 -707.605 248.26L-707.921 249.444ZM-703.064 250.734C-702.252 250.948 -701.439 251.163 -700.626 251.377L-700.315 250.192C-701.128 249.979 -701.94 249.764 -702.751 249.55L-703.064 250.734ZM-698.183 252.017C-697.367 252.231 -696.551 252.444 -695.733 252.656L-695.425 251.471C-696.242 251.259 -697.058 251.046 -697.873 250.833L-698.183 252.017ZM-693.278 253.294C-692.459 253.506 -691.639 253.718 -690.817 253.929L-690.512 252.743C-691.333 252.532 -692.152 252.32 -692.971 252.108L-693.278 253.294ZM-688.351 254.563C-687.528 254.774 -686.704 254.984 -685.879 255.195L-685.576 254.008C-686.401 253.798 -687.224 253.587 -688.047 253.377L-688.351 254.563ZM-683.404 255.824C-682.606 256.026 -681.808 256.228 -681.009 256.43L-680.71 255.243C-681.508 255.041 -682.306 254.839 -683.103 254.637L-683.404 255.824ZM-678.61 257.034C-677.81 257.235 -677.008 257.436 -676.206 257.637L-675.909 256.449C-676.711 256.248 -677.512 256.048 -678.312 255.847L-678.61 257.034ZM-673.796 258.238C-672.992 258.438 -672.188 258.637 -671.382 258.837L-671.088 257.648C-671.893 257.449 -672.697 257.249 -673.501 257.049L-673.796 258.238ZM-668.963 259.434C-668.155 259.633 -667.347 259.832 -666.538 260.03L-666.247 258.841C-667.055 258.642 -667.863 258.444 -668.67 258.245L-668.963 259.434ZM-664.109 260.624C-663.299 260.822 -662.487 261.019 -661.675 261.217L-661.386 260.027C-662.198 259.829 -663.009 259.632 -663.819 259.434L-664.109 260.624ZM-659.237 261.807C-658.423 262.004 -657.609 262.2 -656.793 262.396L-656.507 261.206C-657.322 261.01 -658.136 260.813 -658.949 260.617L-659.237 261.807ZM-654.345 262.984C-653.529 263.179 -652.711 263.374 -651.893 263.569L-651.609 262.378C-652.427 262.183 -653.244 261.988 -654.06 261.793L-654.345 262.984ZM-649.435 264.153C-648.616 264.348 -647.795 264.542 -646.974 264.735L-646.692 263.544C-647.513 263.35 -648.334 263.156 -649.153 262.962L-649.435 264.153ZM-644.507 265.316C-643.685 265.509 -642.861 265.702 -642.037 265.895L-641.758 264.702C-642.582 264.51 -643.405 264.317 -644.228 264.124L-644.507 265.316ZM-639.562 266.472C-638.736 266.664 -637.909 266.856 -637.082 267.047L-636.806 265.854C-637.633 265.663 -638.459 265.471 -639.284 265.279L-639.562 266.472ZM-634.631 267.613C-633.826 267.799 -633.021 267.984 -632.215 268.169L-631.941 266.975C-632.746 266.791 -633.551 266.606 -634.356 266.42L-634.631 267.613ZM-629.794 268.723C-628.987 268.907 -628.179 269.091 -627.37 269.275L-627.099 268.081C-627.907 267.897 -628.715 267.713 -629.522 267.529L-629.794 268.723ZM-624.942 269.826C-624.132 270.009 -623.321 270.192 -622.51 270.375L-622.241 269.18C-623.052 268.998 -623.862 268.815 -624.672 268.631L-624.942 269.826ZM-620.074 270.922C-619.261 271.104 -618.448 271.286 -617.634 271.468L-617.368 270.273C-618.181 270.091 -618.994 269.909 -619.806 269.727L-620.074 270.922ZM-615.191 272.012C-614.376 272.193 -613.56 272.374 -612.744 272.554L-612.479 271.359C-613.295 271.178 -614.111 270.998 -614.925 270.817L-615.191 272.012ZM-610.293 273.095C-609.476 273.275 -608.657 273.455 -607.839 273.634L-607.576 272.438C-608.395 272.259 -609.213 272.079 -610.03 271.899L-610.293 273.095ZM-605.381 274.172C-604.561 274.351 -603.74 274.53 -602.919 274.708L-602.659 273.511C-603.48 273.333 -604.3 273.154 -605.12 272.976L-605.381 274.172ZM-600.454 275.242C-599.632 275.42 -598.809 275.597 -597.986 275.775L-597.728 274.578C-598.551 274.4 -599.373 274.223 -600.195 274.045L-600.454 275.242ZM-595.514 276.306C-594.689 276.482 -593.864 276.659 -593.038 276.835L-592.783 275.637C-593.608 275.461 -594.433 275.285 -595.257 275.108L-595.514 276.306ZM-590.56 277.362C-589.733 277.538 -588.906 277.713 -588.078 277.888L-587.824 276.69C-588.652 276.515 -589.479 276.34 -590.305 276.165L-590.56 277.362ZM-585.609 278.409C-584.798 278.58 -583.987 278.75 -583.176 278.92L-582.924 277.722C-583.736 277.552 -584.546 277.381 -585.356 277.211L-585.609 278.409ZM-580.739 279.43C-579.927 279.599 -579.114 279.768 -578.3 279.937L-578.051 278.738C-578.864 278.569 -579.677 278.4 -580.489 278.231L-580.739 279.43ZM-575.858 280.444C-575.043 280.612 -574.228 280.78 -573.413 280.948L-573.166 279.749C-573.981 279.581 -574.796 279.413 -575.61 279.244L-575.858 280.444ZM-570.965 281.451C-570.148 281.619 -569.331 281.786 -568.514 281.953L-568.269 280.753C-569.086 280.586 -569.903 280.419 -570.719 280.252L-570.965 281.451ZM-566.06 282.452C-565.242 282.619 -564.423 282.785 -563.604 282.95L-563.361 281.75C-564.18 281.585 -564.998 281.419 -565.816 281.252L-566.06 282.452ZM-561.144 283.447C-560.324 283.612 -559.504 283.777 -558.682 283.942L-558.442 282.741C-559.262 282.577 -560.083 282.412 -560.903 282.247L-561.144 283.447ZM-556.218 284.435C-555.396 284.599 -554.573 284.763 -553.751 284.927L-553.512 283.726C-554.334 283.562 -555.156 283.398 -555.978 283.234L-556.218 284.435ZM-551.281 285.417C-550.457 285.58 -549.633 285.743 -548.808 285.905L-548.571 284.704C-549.396 284.541 -550.219 284.379 -551.043 284.216L-551.281 285.417ZM-546.333 286.392C-545.508 286.554 -544.682 286.716 -543.856 286.877L-543.621 285.675C-544.447 285.514 -545.272 285.352 -546.097 285.191L-546.333 286.392ZM-541.376 287.361C-540.549 287.522 -539.722 287.682 -538.894 287.843L-538.661 286.641C-539.488 286.48 -540.315 286.32 -541.142 286.159L-541.376 287.361ZM-536.409 288.323C-535.589 288.481 -534.769 288.639 -533.949 288.796L-533.718 287.594C-534.538 287.436 -535.358 287.279 -536.177 287.121L-536.409 288.323ZM-531.499 289.266C-530.682 289.422 -529.865 289.578 -529.048 289.734L-528.819 288.531C-529.636 288.375 -530.453 288.219 -531.269 288.063L-531.499 289.266ZM-526.594 290.2C-525.775 290.355 -524.957 290.51 -524.138 290.664L-523.91 289.461C-524.729 289.307 -525.548 289.152 -526.366 288.997L-526.594 290.2ZM-521.679 291.127C-520.86 291.282 -520.04 291.435 -519.219 291.589L-518.994 290.385C-519.814 290.232 -520.634 290.078 -521.453 289.924L-521.679 291.127ZM-516.757 292.049C-515.936 292.202 -515.115 292.354 -514.293 292.507L-514.07 291.303C-514.891 291.15 -515.712 290.998 -516.533 290.845L-516.757 292.049ZM-511.827 292.963C-511.004 293.115 -510.182 293.267 -509.359 293.418L-509.137 292.214C-509.96 292.063 -510.782 291.911 -511.604 291.759L-511.827 292.963ZM-506.889 293.872C-506.065 294.023 -505.242 294.173 -504.417 294.324L-504.198 293.119C-505.022 292.969 -505.845 292.818 -506.668 292.667L-506.889 293.872ZM-501.944 294.774C-501.119 294.923 -500.294 295.073 -499.469 295.222L-499.251 294.017C-500.076 293.868 -500.901 293.719 -501.725 293.569L-501.944 294.774ZM-496.992 295.669C-496.166 295.818 -495.34 295.966 -494.513 296.114L-494.297 294.909C-495.123 294.761 -495.949 294.613 -496.775 294.464L-496.992 295.669ZM-492.033 296.558C-491.206 296.706 -490.378 296.853 -489.551 297L-489.337 295.794C-490.164 295.647 -490.991 295.5 -491.818 295.352L-492.033 296.558ZM-487.068 297.44C-486.239 297.587 -485.411 297.733 -484.582 297.879L-484.37 296.673C-485.198 296.527 -486.026 296.381 -486.854 296.235L-487.068 297.44ZM-482.114 298.313C-481.293 298.457 -480.472 298.601 -479.65 298.744L-479.44 297.538C-480.261 297.395 -481.082 297.251 -481.902 297.107L-482.114 298.313ZM-477.185 299.174C-476.364 299.317 -475.541 299.46 -474.719 299.602L-474.51 298.395C-475.332 298.253 -476.154 298.11 -476.976 297.967L-477.185 299.174ZM-472.251 300.028C-471.429 300.17 -470.606 300.312 -469.783 300.453L-469.575 299.246C-470.398 299.105 -471.221 298.963 -472.043 298.822L-472.251 300.028ZM-467.312 300.876C-466.489 301.017 -465.665 301.158 -464.841 301.298L-464.636 300.091C-465.459 299.95 -466.283 299.81 -467.106 299.669L-467.312 300.876ZM-462.369 301.718C-461.544 301.857 -460.719 301.997 -459.895 302.136L-459.691 300.929C-460.515 300.789 -461.34 300.65 -462.164 300.51L-462.369 301.718ZM-457.42 302.553C-456.595 302.691 -455.769 302.83 -454.944 302.968L-454.742 301.76C-455.567 301.622 -456.392 301.484 -457.217 301.345L-457.42 302.553ZM-452.467 303.381C-451.641 303.519 -450.815 303.656 -449.989 303.793L-449.789 302.585C-450.614 302.448 -451.44 302.311 -452.266 302.173L-452.467 303.381ZM-447.51 304.203C-446.683 304.34 -445.857 304.476 -445.03 304.612L-444.831 303.403C-445.658 303.267 -446.484 303.131 -447.31 302.995L-447.51 304.203ZM-442.549 305.019C-441.722 305.154 -440.895 305.289 -440.067 305.424L-439.87 304.215C-440.697 304.08 -441.524 303.945 -442.351 303.81L-442.549 305.019ZM-437.585 305.827C-436.757 305.962 -435.929 306.096 -435.101 306.229L-434.906 305.02C-435.733 304.887 -436.561 304.753 -437.388 304.619L-437.585 305.827ZM-432.617 306.63C-431.791 306.763 -430.964 306.895 -430.137 307.027L-429.944 305.818C-430.77 305.686 -431.596 305.553 -432.422 305.421L-432.617 306.63ZM-427.661 307.423C-426.836 307.555 -426.01 307.686 -425.185 307.817L-424.993 306.607C-425.818 306.476 -426.643 306.345 -427.469 306.214L-427.661 307.423ZM-422.707 308.209C-421.881 308.34 -421.055 308.47 -420.229 308.6L-420.039 307.39C-420.865 307.26 -421.69 307.13 -422.516 307L-422.707 308.209ZM-417.751 308.989C-416.924 309.118 -416.098 309.247 -415.271 309.376L-415.083 308.166C-415.909 308.037 -416.735 307.908 -417.561 307.779L-417.751 308.989ZM-412.792 309.762C-411.965 309.89 -411.138 310.018 -410.312 310.146L-410.125 308.935C-410.951 308.808 -411.778 308.68 -412.604 308.552L-412.792 309.762ZM-407.831 310.528C-407.004 310.655 -406.177 310.782 -405.35 310.909L-405.165 309.698C-405.992 309.572 -406.819 309.445 -407.645 309.318L-407.831 310.528ZM-402.869 311.288C-402.042 311.414 -401.215 311.54 -400.388 311.665L-400.204 310.454C-401.031 310.329 -401.858 310.203 -402.685 310.077L-402.869 311.288ZM-397.906 312.041C-397.079 312.166 -396.251 312.29 -395.424 312.415L-395.242 311.204C-396.069 311.08 -396.896 310.955 -397.723 310.83L-397.906 312.041ZM-392.941 312.787C-392.114 312.911 -391.286 313.035 -390.459 313.158L-390.278 311.947C-391.106 311.824 -391.933 311.7 -392.76 311.576L-392.941 312.787ZM-387.976 313.527C-387.149 313.65 -386.321 313.772 -385.494 313.894L-385.315 312.683C-386.142 312.561 -386.969 312.438 -387.797 312.316L-387.976 313.527ZM-383.011 314.26C-382.183 314.382 -381.355 314.503 -380.528 314.624L-380.351 313.413C-381.178 313.291 -382.005 313.17 -382.833 313.049L-383.011 314.26ZM-378.043 314.987C-377.214 315.108 -376.384 315.228 -375.555 315.348L-375.379 314.136C-376.208 314.016 -377.038 313.896 -377.867 313.775L-378.043 314.987ZM-373.067 315.708C-372.237 315.828 -371.408 315.947 -370.579 316.066L-370.405 314.854C-371.234 314.735 -372.063 314.616 -372.892 314.496L-373.067 315.708ZM-368.091 316.422C-367.262 316.541 -366.432 316.659 -365.603 316.777L-365.431 315.565C-366.26 315.447 -367.089 315.329 -367.918 315.21L-368.091 316.422ZM-363.116 317.13C-362.286 317.247 -361.457 317.365 -360.628 317.481L-360.457 316.269C-361.286 316.152 -362.115 316.035 -362.944 315.918L-363.116 317.13ZM-358.141 317.831C-357.312 317.947 -356.483 318.063 -355.654 318.179L-355.485 316.966C-356.314 316.85 -357.142 316.735 -357.971 316.618L-358.141 317.831ZM-353.168 318.525C-352.339 318.64 -351.51 318.755 -350.682 318.87L-350.514 317.657C-351.343 317.542 -352.171 317.427 -352.999 317.312L-353.168 318.525ZM-348.196 319.212C-347.368 319.326 -346.539 319.44 -345.711 319.553L-345.545 318.34C-346.373 318.227 -347.201 318.113 -348.029 317.999L-348.196 319.212ZM-343.226 319.893C-342.398 320.005 -341.57 320.118 -340.742 320.23L-340.577 319.017C-341.405 318.905 -342.233 318.792 -343.061 318.679L-343.226 319.893ZM-338.258 320.566C-337.43 320.678 -336.603 320.789 -335.775 320.9L-335.612 319.687C-336.44 319.576 -337.267 319.464 -338.095 319.353L-338.258 320.566ZM-333.293 321.233C-332.465 321.343 -331.638 321.454 -330.811 321.564L-330.649 320.35C-331.476 320.24 -332.303 320.13 -333.13 320.019L-333.293 321.233ZM-328.33 321.893C-327.502 322.002 -326.674 322.111 -325.846 322.22L-325.687 321.006C-326.514 320.897 -327.341 320.788 -328.169 320.679L-328.33 321.893ZM-323.346 322.548C-322.513 322.658 -321.68 322.766 -320.847 322.875L-320.689 321.661C-321.521 321.552 -322.354 321.443 -323.187 321.334L-323.346 322.548ZM-318.349 323.2C-317.516 323.308 -316.683 323.415 -315.851 323.523L-315.694 322.308C-316.526 322.201 -317.359 322.093 -318.191 321.985L-318.349 323.2ZM-313.354 323.844C-312.522 323.951 -311.69 324.057 -310.859 324.163L-310.703 322.948C-311.535 322.842 -312.367 322.736 -313.198 322.629L-313.354 323.844ZM-308.364 324.481C-307.532 324.586 -306.701 324.692 -305.87 324.797L-305.716 323.582C-306.547 323.477 -307.378 323.372 -308.209 323.266L-308.364 324.481ZM-303.377 325.111C-302.547 325.215 -301.716 325.319 -300.886 325.423L-300.734 324.208C-301.564 324.104 -302.394 324 -303.225 323.896L-303.377 325.111ZM-298.395 325.734C-297.565 325.837 -296.735 325.94 -295.906 326.042L-295.755 324.827C-296.585 324.724 -297.414 324.622 -298.244 324.518L-298.395 325.734ZM-293.418 326.349C-292.588 326.451 -291.759 326.553 -290.931 326.654L-290.782 325.439C-291.61 325.338 -292.439 325.236 -293.268 325.134L-293.418 326.349ZM-288.445 326.958C-287.617 327.059 -286.789 327.159 -285.961 327.259L-285.813 326.044C-286.641 325.943 -287.469 325.843 -288.297 325.742L-288.445 326.958ZM-283.478 327.559C-282.65 327.659 -281.823 327.758 -280.996 327.857L-280.85 326.641C-281.677 326.542 -282.504 326.443 -283.331 326.343L-283.478 327.559ZM-278.516 328.153C-277.689 328.252 -276.863 328.35 -276.037 328.448L-275.893 327.232C-276.719 327.134 -277.545 327.036 -278.371 326.937L-278.516 328.153ZM-273.555 328.741C-272.718 328.84 -271.88 328.938 -271.044 329.036L-270.901 327.82C-271.738 327.722 -272.575 327.623 -273.412 327.525L-273.555 328.741ZM-268.533 329.329C-267.697 329.426 -266.861 329.524 -266.025 329.62L-265.884 328.404C-266.72 328.307 -267.555 328.21 -268.392 328.113L-268.533 329.329ZM-263.518 329.91C-262.683 330.006 -261.848 330.102 -261.013 330.197L-260.874 328.981C-261.708 328.885 -262.543 328.789 -263.378 328.693L-263.518 329.91ZM-258.509 330.483C-257.675 330.578 -256.841 330.673 -256.008 330.767L-255.87 329.55C-256.703 329.456 -257.537 329.361 -258.371 329.266L-258.509 330.483ZM-253.508 331.049C-252.675 331.142 -251.842 331.236 -251.01 331.329L-250.874 330.112C-251.706 330.019 -252.538 329.926 -253.371 329.832L-253.508 331.049ZM-248.514 331.607C-247.682 331.699 -246.851 331.792 -246.02 331.883L-245.885 330.666C-246.716 330.574 -247.547 330.482 -248.379 330.39L-248.514 331.607ZM-243.527 332.158C-242.697 332.249 -241.867 332.34 -241.037 332.43L-240.904 331.213C-241.734 331.123 -242.564 331.032 -243.394 330.941L-243.527 332.158ZM-238.549 332.701C-237.72 332.791 -236.891 332.881 -236.063 332.97L-235.932 331.752C-236.76 331.663 -237.588 331.574 -238.417 331.484L-238.549 332.701ZM-233.579 333.237C-232.751 333.325 -231.924 333.414 -231.097 333.502L-230.968 332.284C-231.794 332.196 -232.621 332.108 -233.449 332.019L-233.579 333.237ZM-228.618 333.765C-227.791 333.852 -226.966 333.939 -226.14 334.026L-226.012 332.808C-226.837 332.721 -227.663 332.634 -228.489 332.547L-228.618 333.765ZM-223.665 334.285C-222.833 334.372 -222.002 334.459 -221.171 334.545L-221.045 333.327C-221.875 333.241 -222.706 333.154 -223.538 333.067L-223.665 334.285ZM-218.649 334.806C-217.808 334.892 -216.968 334.979 -216.128 335.065L-216.004 333.847C-216.843 333.761 -217.683 333.674 -218.523 333.588L-218.649 334.806ZM-213.611 335.322C-212.772 335.407 -211.934 335.492 -211.096 335.577L-210.973 334.358C-211.81 334.274 -212.648 334.189 -213.487 334.103L-213.611 335.322ZM-208.583 335.829C-207.746 335.913 -206.909 335.997 -206.073 336.08L-205.952 334.862C-206.788 334.779 -207.624 334.695 -208.461 334.611L-208.583 335.829ZM-203.566 336.329C-202.731 336.412 -201.896 336.494 -201.062 336.576L-200.942 335.358C-201.776 335.276 -202.61 335.193 -203.445 335.111L-203.566 336.329ZM-198.56 336.821C-197.726 336.902 -196.893 336.983 -196.061 337.064L-195.943 335.845C-196.775 335.765 -197.608 335.684 -198.441 335.602L-198.56 336.821ZM-193.565 337.305C-192.733 337.385 -191.902 337.465 -191.071 337.544L-190.955 336.325C-191.785 336.246 -192.616 336.166 -193.447 336.086L-193.565 337.305ZM-188.581 337.781C-187.751 337.859 -186.922 337.938 -186.093 338.016L-185.979 336.796C-186.807 336.718 -187.636 336.64 -188.465 336.562L-188.581 337.781ZM-183.609 338.248C-182.781 338.326 -181.954 338.403 -181.128 338.479L-181.015 337.26C-181.841 337.183 -182.668 337.106 -183.495 337.029L-183.609 338.248ZM-178.649 338.708C-177.824 338.784 -176.999 338.86 -176.174 338.935L-176.063 337.715C-176.887 337.64 -177.712 337.565 -178.537 337.489L-178.649 338.708ZM-173.702 339.16C-172.876 339.234 -172.051 339.309 -171.226 339.383L-171.116 338.163C-171.941 338.089 -172.766 338.015 -173.592 337.94L-173.702 339.16ZM-168.691 339.61C-167.846 339.685 -167.002 339.76 -166.159 339.835L-166.051 338.615C-166.894 338.54 -167.738 338.465 -168.582 338.39L-168.691 339.61ZM-163.631 340.057C-162.789 340.131 -161.947 340.205 -161.106 340.278L-161 339.058C-161.841 338.985 -162.682 338.911 -163.524 338.837L-163.631 340.057ZM-158.585 340.496C-157.745 340.568 -156.906 340.64 -156.068 340.712L-155.963 339.492C-156.802 339.42 -157.64 339.348 -158.48 339.276L-158.585 340.496ZM-153.554 340.926C-152.716 340.997 -151.88 341.068 -151.044 341.138L-150.941 339.918C-151.777 339.847 -152.613 339.777 -153.45 339.706L-153.554 340.926ZM-148.537 341.347C-147.703 341.417 -146.868 341.486 -146.035 341.555L-145.934 340.334C-146.767 340.266 -147.601 340.197 -148.436 340.127L-148.537 341.347ZM-143.536 341.76C-142.704 341.828 -141.872 341.896 -141.041 341.963L-140.943 340.743C-141.773 340.675 -142.604 340.608 -143.436 340.54L-143.536 341.76ZM-138.551 342.164C-137.721 342.231 -136.892 342.297 -136.064 342.363L-135.967 341.142C-136.795 341.076 -137.623 341.01 -138.453 340.944L-138.551 342.164ZM-133.581 342.559C-132.754 342.625 -131.928 342.689 -131.102 342.754L-131.007 341.533C-131.832 341.469 -132.658 341.404 -133.485 341.339L-133.581 342.559ZM-128.627 342.946C-127.803 343.01 -126.979 343.073 -126.157 343.136L-126.063 341.915C-126.886 341.852 -127.709 341.789 -128.533 341.725L-128.627 342.946ZM-123.69 343.324C-122.858 343.387 -122.026 343.449 -121.195 343.512L-121.104 342.291C-121.934 342.228 -122.766 342.166 -123.598 342.103L-123.69 343.324ZM-118.649 343.702C-117.801 343.765 -116.954 343.827 -116.108 343.889L-116.018 342.668C-116.864 342.606 -117.711 342.543 -118.559 342.481L-118.649 343.702ZM-113.571 344.074C-112.726 344.136 -111.882 344.197 -111.039 344.257L-110.951 343.036C-111.794 342.975 -112.638 342.914 -113.482 342.853L-113.571 344.074ZM-108.512 344.438C-107.67 344.497 -106.829 344.557 -105.989 344.616L-105.903 343.394C-106.743 343.335 -107.584 343.276 -108.425 343.216L-108.512 344.438ZM-103.472 344.792C-102.633 344.85 -101.796 344.907 -100.959 344.965L-100.875 343.743C-101.712 343.686 -102.549 343.628 -103.387 343.57L-103.472 344.792ZM-98.4513 345.136C-97.6163 345.192 -96.7821 345.249 -95.9487 345.304L-95.8669 344.082C-96.7 344.027 -97.5339 343.971 -98.3685 343.914L-98.4513 345.136ZM-93.4511 345.47C-92.6194 345.525 -91.7886 345.58 -90.9586 345.634L-90.8788 344.412C-91.7084 344.358 -92.5389 344.304 -93.3703 344.249L-93.4511 345.47ZM-88.4712 345.796C-87.643 345.849 -86.8156 345.902 -85.9891 345.955L-85.9113 344.733C-86.7375 344.68 -87.5645 344.627 -88.3924 344.574L-88.4712 345.796ZM-83.5122 346.111C-82.6875 346.163 -81.8636 346.214 -81.0406 346.265L-80.9649 345.043C-81.7875 344.992 -82.6111 344.941 -83.4355 344.889L-83.5122 346.111ZM-78.5744 346.417C-77.7532 346.467 -76.9328 346.517 -76.1134 346.566L-76.0398 345.344C-76.8588 345.295 -77.6788 345.245 -78.4996 345.195L-78.5744 346.417ZM-73.623 346.715C-72.7691 346.766 -71.9162 346.817 -71.0643 346.866L-70.9928 345.644C-71.8443 345.594 -72.6968 345.544 -73.5504 345.493L-73.623 346.715ZM-68.5117 347.015C-67.6617 347.064 -66.8129 347.112 -65.965 347.16L-65.8957 345.938C-66.7432 345.89 -67.5917 345.841 -68.4412 345.792L-68.5117 347.015ZM-63.4247 347.303C-62.5789 347.35 -61.7341 347.397 -60.8904 347.443L-60.8233 346.221C-61.6666 346.175 -62.511 346.128 -63.3564 346.081L-63.4247 347.303ZM-58.3625 347.581C-57.5209 347.627 -56.6803 347.672 -55.8408 347.716L-55.7759 346.493C-56.615 346.449 -57.4552 346.404 -58.2965 346.358L-58.3625 347.581ZM-53.3255 347.849C-52.4882 347.892 -51.6519 347.935 -50.8167 347.978L-50.754 346.755C-51.5889 346.713 -52.4248 346.669 -53.2618 346.626L-53.3255 347.849ZM-48.3143 348.105C-47.4813 348.147 -46.6494 348.189 -45.8185 348.23L-45.7581 347.007C-46.5886 346.966 -47.4202 346.924 -48.2528 346.882L-48.3143 348.105ZM-43.3292 348.351C-42.5005 348.391 -41.673 348.431 -40.8466 348.47L-40.7885 347.247C-41.6146 347.208 -42.4417 347.168 -43.27 347.128L-43.3292 348.351ZM-38.3706 348.587C-37.5465 348.625 -36.7234 348.663 -35.9015 348.7L-35.8458 347.477C-36.6673 347.44 -37.49 347.402 -38.3138 347.363L-38.3706 348.587ZM-33.4391 348.811C-32.6194 348.848 -31.8009 348.884 -30.9836 348.92L-30.9302 347.696C-31.7472 347.661 -32.5653 347.625 -33.3845 347.588L-33.4391 348.811ZM-28.5243 349.026C-27.6651 349.062 -26.8071 349.098 -25.9505 349.134L-25.8996 347.911C-26.7558 347.875 -27.6133 347.839 -28.4721 347.802L-28.5243 349.026ZM-23.3845 349.24C-22.5305 349.274 -21.6778 349.308 -20.8264 349.342L-20.7781 348.118C-21.6291 348.085 -22.4813 348.051 -23.3349 348.016L-23.3845 349.24ZM-18.2762 349.441C-17.4275 349.474 -16.5802 349.506 -15.7341 349.538L-15.6884 348.314C-16.534 348.282 -17.3809 348.25 -18.2292 348.218L-18.2762 349.441ZM-13.2 349.631C-12.3567 349.662 -11.5147 349.692 -10.6741 349.721L-10.6309 348.498C-11.4711 348.468 -12.3126 348.438 -13.1555 348.407L-13.2 349.631ZM-8.15622 349.809C-7.31832 349.837 -6.48182 349.866 -5.6467 349.893L-5.60622 348.669C-6.44091 348.642 -7.27698 348.614 -8.11439 348.585L-8.15622 349.809ZM-3.14546 349.974C-2.31312 350.001 -1.48217 350.027 -0.652608 350.053L-0.614868 348.829C-1.44394 348.803 -2.27447 348.777 -3.10632 348.751L-3.14546 349.974ZM1.83179 350.128C2.65851 350.153 3.48379 350.177 4.30767 350.2L4.34267 348.976C3.51927 348.953 2.69442 348.929 1.86819 348.904L1.83179 350.128ZM6.77504 350.269C7.59603 350.292 8.41557 350.314 9.23366 350.335L9.26597 349.111C8.44824 349.09 7.6292 349.068 6.80863 349.045L6.77504 350.269ZM11.6837 350.399C12.4989 350.419 13.3126 350.439 14.1249 350.459L14.1543 349.234C13.3425 349.215 12.5292 349.195 11.7145 349.174L11.6837 350.399ZM16.6812 350.518C17.5434 350.538 18.404 350.557 19.2627 350.575L19.2892 349.351C18.4308 349.333 17.5709 349.314 16.7091 349.294L16.6812 350.518ZM21.8341 350.629C22.6894 350.646 23.5431 350.663 24.395 350.679L24.4182 349.455C23.5668 349.439 22.7137 349.422 21.8588 349.405L21.8341 350.629ZM26.9459 350.726C27.7943 350.741 28.6411 350.755 29.4861 350.769L29.5062 349.545C28.6617 349.531 27.8154 349.517 26.9674 349.502L26.9459 350.726ZM32.016 350.809C32.8576 350.822 33.6973 350.834 34.5353 350.845L34.5521 349.621C33.7146 349.609 32.8753 349.597 32.0344 349.585L32.016 350.809ZM37.0439 350.878C37.8783 350.888 38.711 350.898 39.5419 350.907L39.5553 349.683C38.725 349.673 37.893 349.664 37.059 349.653L37.0439 350.878ZM42.029 350.933C42.8562 350.941 43.6817 350.948 44.5053 350.955L44.5154 349.73C43.6923 349.724 42.8674 349.716 42.0408 349.708L42.029 350.933ZM46.9707 350.973C47.7906 350.979 48.6087 350.984 49.4249 350.989L49.4316 349.764C48.6159 349.76 47.7984 349.755 46.979 349.749L46.9707 350.973ZM51.8683 351C52.6807 351.003 53.4915 351.006 54.3003 351.008L54.3034 349.784C53.4952 349.782 52.6851 349.779 51.8731 349.776L51.8683 351ZM56.8241 351.013C57.6925 351.014 58.5588 351.014 59.4228 351.013L59.4221 349.789C58.5588 349.789 57.6931 349.789 56.8254 349.788L56.8241 351.013ZM62.0081 351.01C62.8677 351.008 63.7249 351.006 64.58 351.002L64.5753 349.778C63.7209 349.781 62.8643 349.784 62.0054 349.785L62.0081 351.01ZM67.1384 350.991C67.989 350.986 68.8374 350.981 69.6833 350.975L69.6746 349.75C68.8293 349.756 67.9817 349.761 67.1318 349.766L67.1384 350.991ZM72.2145 350.955C73.056 350.947 73.8952 350.939 74.7319 350.93L74.7192 349.706C73.883 349.715 73.0446 349.723 72.2037 349.73L72.2145 350.955ZM77.2355 350.902C78.0678 350.892 78.8977 350.881 79.7252 350.869L79.7081 349.645C78.8813 349.656 78.0521 349.667 77.2206 349.677L77.2355 350.902ZM82.2008 350.833C83.0236 350.82 83.8441 350.806 84.6622 350.792L84.6407 349.567C83.8233 349.582 83.0036 349.595 82.1815 349.608L82.2008 350.833ZM87.1093 350.746C87.9226 350.731 88.7336 350.714 89.5421 350.697L89.5161 349.473C88.7084 349.49 87.8981 349.506 87.0856 349.522L87.1093 350.746ZM91.9605 350.643C92.8017 350.624 93.6403 350.604 94.4762 350.583L94.4455 349.359C93.6104 349.38 92.7726 349.4 91.9322 349.419L91.9605 350.643ZM97.0915 350.515C97.9602 350.491 98.8261 350.466 99.689 350.441L99.653 349.217C98.7911 349.242 97.9261 349.267 97.0582 349.29L97.0915 350.515ZM102.269 350.363C103.126 350.336 103.98 350.308 104.831 350.279L104.789 349.055C103.939 349.084 103.086 349.112 102.23 349.139L102.269 350.363ZM107.374 350.19C108.219 350.16 109.061 350.129 109.9 350.096L109.853 348.873C109.015 348.905 108.174 348.936 107.33 348.967L107.374 350.19ZM112.407 349.998C113.24 349.964 114.069 349.929 114.896 349.894L114.843 348.67C114.018 348.706 113.189 348.74 112.357 348.774L112.407 349.998ZM117.366 349.784C118.186 349.747 119.003 349.709 119.818 349.67L119.759 348.447C118.946 348.486 118.13 348.524 117.31 348.561L117.366 349.784ZM122.25 349.551C123.058 349.51 123.862 349.469 124.664 349.426L124.599 348.203C123.799 348.246 122.995 348.287 122.188 348.328L122.25 349.551ZM127.058 349.296C127.922 349.249 128.782 349.2 129.639 349.15L129.568 347.927C128.712 347.977 127.853 348.026 126.991 348.074L127.058 349.296ZM132.265 348.993C133.136 348.939 134.003 348.885 134.866 348.829L134.787 347.607C133.926 347.662 133.06 347.717 132.19 347.77L132.265 348.993ZM137.443 348.659C138.298 348.601 139.149 348.542 139.995 348.482L139.909 347.261C139.064 347.321 138.214 347.38 137.361 347.437L137.443 348.659ZM142.523 348.299C143.362 348.237 144.196 348.174 145.026 348.11L144.931 346.889C144.103 346.953 143.27 347.016 142.433 347.078L142.523 348.299ZM147.503 347.914C148.325 347.848 149.142 347.78 149.955 347.712L149.853 346.491C149.041 346.56 148.225 346.627 147.405 346.693L147.503 347.914ZM152.382 347.502C153.187 347.432 153.987 347.36 154.783 347.287L154.671 346.067C153.877 346.14 153.078 346.212 152.275 346.283L152.382 347.502ZM157.158 347.065C157.994 346.985 158.826 346.904 159.652 346.822L159.53 345.603C158.706 345.685 157.876 345.766 157.042 345.846L157.158 347.065ZM162.302 346.552C163.179 346.461 164.051 346.368 164.917 346.274L164.785 345.056C163.921 345.15 163.051 345.243 162.175 345.334L162.302 346.552ZM167.498 345.987C168.352 345.89 169.201 345.791 170.044 345.691L169.899 344.475C169.059 344.575 168.212 344.673 167.36 344.77L167.498 345.987ZM172.554 345.387C173.385 345.284 174.21 345.18 175.029 345.074L174.872 343.859C174.055 343.965 173.232 344.069 172.404 344.172L172.554 345.387ZM177.468 344.752C178.276 344.644 179.077 344.533 179.872 344.422L179.702 343.209C178.909 343.32 178.11 343.43 177.305 343.539L177.468 344.752ZM182.239 344.083C183.022 343.968 183.798 343.852 184.569 343.735L184.385 342.524C183.617 342.641 182.842 342.757 182.062 342.871L182.239 344.083ZM187.127 343.336C188.019 343.194 188.903 343.05 189.777 342.904L189.575 341.696C188.704 341.842 187.823 341.985 186.935 342.127L187.127 343.336ZM192.375 342.459C193.232 342.309 194.081 342.156 194.921 342.002L194.699 340.798C193.863 340.951 193.018 341.103 192.164 341.253L192.375 342.459ZM197.414 341.533C198.236 341.374 199.049 341.213 199.854 341.051L199.611 339.851C198.81 340.012 198.001 340.172 197.182 340.33L197.414 341.533ZM202.24 340.557C203.026 340.39 203.804 340.221 204.572 340.05L204.306 338.855C203.542 339.025 202.768 339.193 201.986 339.359L202.24 340.557ZM206.85 339.531C207.223 339.445 207.593 339.357 207.961 339.269L207.676 338.078C207.31 338.166 206.942 338.252 206.572 338.339L206.85 339.531ZM207.961 339.269C208.374 339.17 208.786 339.071 209.198 338.972L208.911 337.781C208.5 337.881 208.088 337.98 207.676 338.078L207.961 339.269ZM211.665 338.368C212.485 338.165 213.303 337.959 214.119 337.752L213.817 336.565C213.004 336.772 212.188 336.976 211.37 337.179L211.665 338.368ZM216.56 337.126C217.372 336.915 218.182 336.702 218.99 336.488L218.676 335.304C217.87 335.518 217.062 335.73 216.253 335.941L216.56 337.126ZM221.408 335.839C222.211 335.621 223.013 335.4 223.813 335.179L223.486 333.999C222.688 334.22 221.888 334.439 221.087 334.657L221.408 335.839ZM226.206 334.507C227.017 334.278 227.826 334.046 228.633 333.812L228.292 332.636C227.488 332.869 226.681 333.1 225.873 333.329L226.206 334.507ZM231.067 333.1C231.876 332.861 232.683 332.62 233.488 332.377L233.134 331.204C232.332 331.447 231.527 331.687 230.72 331.926L231.067 333.1ZM235.897 331.642C236.698 331.395 237.497 331.146 238.293 330.896L237.926 329.728C237.132 329.977 236.335 330.225 235.536 330.472L235.897 331.642ZM240.677 330.139C241.469 329.885 242.26 329.629 243.048 329.371L242.667 328.207C241.881 328.464 241.093 328.72 240.303 328.973L240.677 330.139ZM245.412 328.591C246.216 328.323 247.019 328.053 247.819 327.781L247.425 326.621C246.627 326.892 245.827 327.162 245.024 327.429L245.412 328.591ZM250.214 326.959C251.01 326.684 251.804 326.406 252.595 326.127L252.188 324.972C251.399 325.25 250.607 325.527 249.813 325.802L250.214 326.959ZM254.964 325.283C255.751 325 256.536 324.716 257.319 324.429L256.898 323.279C256.118 323.565 255.335 323.849 254.55 324.131L254.964 325.283ZM259.661 323.564C260.44 323.274 261.216 322.982 261.991 322.688L261.556 321.543C260.784 321.836 260.01 322.127 259.234 322.417L259.661 323.564ZM264.347 321.787C265.136 321.482 265.923 321.176 266.708 320.867L266.26 319.728C265.478 320.035 264.693 320.341 263.906 320.645L264.347 321.787ZM269.056 319.937C269.836 319.625 270.614 319.311 271.39 318.996L270.929 317.861C270.155 318.176 269.38 318.489 268.602 318.8L269.056 319.937ZM273.711 318.044C274.482 317.725 275.251 317.404 276.018 317.082L275.544 315.953C274.779 316.275 274.012 316.594 273.243 316.913L273.711 318.044ZM278.312 316.11C279.083 315.78 279.851 315.449 280.617 315.116L280.129 313.993C279.365 314.325 278.599 314.655 277.831 314.984L278.312 316.11ZM282.94 314.098C283.711 313.758 284.481 313.415 285.248 313.071L284.746 311.953C283.981 312.297 283.214 312.638 282.445 312.978L282.94 314.098ZM287.542 312.032C288.304 311.685 289.064 311.335 289.822 310.984L289.307 309.873C288.552 310.223 287.794 310.571 287.034 310.918L287.542 312.032ZM292.088 309.925C292.841 309.571 293.592 309.215 294.34 308.857L293.812 307.752C293.066 308.109 292.317 308.464 291.566 308.817L292.088 309.925ZM296.6 307.768C297.361 307.398 298.12 307.027 298.877 306.654L298.335 305.556C297.581 305.928 296.824 306.298 296.065 306.667L296.6 307.768ZM301.139 305.53C301.891 305.153 302.64 304.775 303.387 304.396L302.832 303.304C302.087 303.683 301.34 304.06 300.591 304.435L301.139 305.53ZM305.62 303.252C306.363 302.869 307.102 302.485 307.84 302.098L307.271 301.014C306.536 301.399 305.799 301.782 305.059 302.164L305.62 303.252ZM310.044 300.936C310.785 300.542 311.524 300.146 312.261 299.749L311.679 298.671C310.945 299.067 310.209 299.461 309.47 299.854L310.044 300.936ZM314.487 298.54C315.226 298.135 315.963 297.729 316.698 297.321L316.104 296.251C315.371 296.657 314.636 297.062 313.899 297.466L314.487 298.54ZM318.894 296.093C319.624 295.682 320.351 295.27 321.075 294.856L320.468 293.793C319.746 294.205 319.021 294.617 318.293 295.026L318.894 296.093ZM323.242 293.61C323.962 293.193 324.679 292.774 325.393 292.355L324.773 291.299C324.061 291.717 323.346 292.135 322.628 292.55L323.242 293.61ZM327.568 291.068C328.294 290.636 329.018 290.202 329.738 289.766L329.105 288.718C328.387 289.152 327.665 289.585 326.942 290.016L327.568 291.068ZM331.893 288.456C332.609 288.017 333.322 287.577 334.032 287.136L333.386 286.096C332.678 286.536 331.967 286.974 331.253 287.411L331.893 288.456ZM336.156 285.808C336.861 285.364 337.564 284.919 338.265 284.472L337.606 283.44C336.908 283.885 336.207 284.329 335.504 284.772L336.156 285.808ZM340.368 283.121C341.078 282.662 341.787 282.201 342.492 281.738L341.821 280.714C341.118 281.175 340.411 281.635 339.703 282.093L340.368 283.121ZM344.601 280.347C345.301 279.882 345.999 279.415 346.694 278.947L346.01 277.931C345.317 278.398 344.622 278.863 343.923 279.327L344.601 280.347ZM348.771 277.54C349.461 277.069 350.148 276.598 350.833 276.125L350.136 275.117C349.454 275.589 348.769 276.059 348.081 276.528L348.771 277.54ZM352.878 274.702C353.569 274.218 354.258 273.733 354.943 273.247L354.235 272.248C353.551 272.733 352.865 273.216 352.176 273.699L352.878 274.702ZM357.003 271.777C357.686 271.286 358.367 270.793 359.045 270.3L358.325 269.31C357.649 269.802 356.97 270.293 356.288 270.783L357.003 271.777ZM361.072 268.815C361.745 268.319 362.415 267.822 363.083 267.324L362.35 266.342C361.684 266.839 361.016 267.335 360.345 267.829L361.072 268.815ZM365.077 265.825C365.746 265.319 366.413 264.812 367.076 264.304L366.332 263.331C365.67 263.838 365.006 264.344 364.338 264.848L365.077 265.825ZM369.082 262.758C369.748 262.241 370.411 261.724 371.072 261.205L370.315 260.242C369.657 260.759 368.996 261.275 368.332 261.79L369.082 262.758ZM373.044 259.646C373.699 259.126 374.351 258.604 375 258.081L374.232 257.127C373.585 257.649 372.935 258.169 372.282 258.688L373.044 259.646ZM376.94 256.51C377.588 255.982 378.234 255.452 378.876 254.921L378.097 253.977C377.456 254.506 376.812 255.034 376.166 255.561L376.94 256.51ZM380.826 253.302C381.473 252.762 382.117 252.22 382.758 251.678L381.967 250.743C381.328 251.284 380.686 251.824 380.041 252.363L380.826 253.302ZM384.674 250.047C385.309 249.503 385.942 248.958 386.572 248.412L385.769 247.487C385.142 248.031 384.511 248.575 383.877 249.117L384.674 250.047ZM388.453 246.771C389.081 246.22 389.707 245.667 390.33 245.114L389.517 244.198C388.896 244.75 388.272 245.301 387.645 245.851L388.453 246.771ZM392.22 243.425C392.847 242.861 393.471 242.297 394.092 241.731L393.268 240.826C392.649 241.389 392.026 241.952 391.401 242.514L392.22 243.425ZM395.947 240.033C396.562 239.466 397.174 238.899 397.784 238.331L396.949 237.435C396.341 238.001 395.731 238.567 395.117 239.132L395.947 240.033ZM399.603 236.624C400.213 236.049 400.82 235.473 401.424 234.896L400.578 234.011C399.976 234.585 399.371 235.16 398.763 235.733L399.603 236.624ZM403.251 233.141C403.857 232.555 404.46 231.968 405.06 231.382L404.204 230.506C403.606 231.091 403.005 231.676 402.4 232.26L403.251 233.141ZM406.851 229.619C407.445 229.031 408.036 228.443 408.624 227.854L407.758 226.989C407.171 227.576 406.582 228.163 405.99 228.749L406.851 229.619ZM410.379 226.086C410.971 225.485 411.56 224.885 412.146 224.284L411.269 223.429C410.685 224.028 410.098 224.627 409.507 225.226L410.379 226.086ZM413.908 222.466C414.492 221.859 415.073 221.252 415.651 220.645L414.764 219.801C414.188 220.406 413.608 221.011 413.026 221.616L413.908 222.466ZM417.375 218.823C417.947 218.215 418.515 217.607 419.08 216.999L418.184 216.165C417.62 216.772 417.053 217.378 416.483 217.984L417.375 218.823ZM420.771 215.169C421.346 214.544 421.917 213.919 422.484 213.293L421.577 212.47C421.011 213.094 420.442 213.717 419.87 214.34L420.771 215.169ZM424.177 211.417C424.738 210.791 425.296 210.166 425.851 209.54L424.934 208.727C424.381 209.352 423.825 209.975 423.266 210.599L424.177 211.417ZM427.505 207.662C428.053 207.036 428.598 206.41 429.14 205.784L428.214 204.983C427.674 205.607 427.131 206.231 426.584 206.855L427.505 207.662ZM430.785 203.873C431.336 203.229 431.883 202.586 432.426 201.942L431.491 201.152C430.949 201.793 430.403 202.435 429.855 203.077L430.785 203.873ZM434.047 200.013C434.584 199.369 435.118 198.727 435.648 198.084L434.704 197.304C434.175 197.945 433.643 198.586 433.107 199.228L434.047 200.013ZM437.229 196.156C437.758 195.508 438.284 194.859 438.806 194.211L437.852 193.443C437.332 194.089 436.808 194.736 436.28 195.383L437.229 196.156ZM440.393 192.229C440.919 191.569 441.441 190.909 441.96 190.249L440.997 189.492C440.48 190.15 439.959 190.808 439.435 191.466L440.393 192.229ZM443.505 188.272C444.016 187.614 444.524 186.956 445.029 186.298L444.058 185.552C443.555 186.208 443.048 186.864 442.538 187.521L443.505 188.272ZM446.542 184.315C447.056 183.637 447.566 182.96 448.073 182.284L447.093 181.55C446.588 182.224 446.079 182.899 445.566 183.575L446.542 184.315ZM449.582 180.257C450.081 179.582 450.576 178.908 451.068 178.235L450.08 177.513C449.589 178.184 449.095 178.856 448.597 179.529L449.582 180.257ZM452.533 176.218C453.022 175.542 453.506 174.866 453.987 174.191L452.99 173.481C452.511 174.153 452.027 174.827 451.541 175.501L452.533 176.218ZM455.459 172.115C455.945 171.424 456.428 170.733 456.907 170.045L455.901 169.346C455.424 170.033 454.943 170.721 454.457 171.41L455.459 172.115ZM458.332 167.981C458.803 167.295 459.271 166.609 459.734 165.925L458.721 165.238C458.258 165.92 457.792 166.604 457.323 167.288L458.332 167.981ZM461.135 163.846C461.608 163.139 462.078 162.433 462.543 161.728L461.521 161.053C461.057 161.756 460.589 162.46 460.117 163.165L461.135 163.846ZM463.927 159.619C464.384 158.918 464.837 158.218 465.286 157.52L464.256 156.857C463.808 157.553 463.357 158.251 462.901 158.95L463.927 159.619ZM466.622 155.431C467.077 154.714 467.528 153.999 467.974 153.286L466.937 152.636C466.491 153.347 466.042 154.06 465.588 154.774L466.622 155.431ZM469.315 151.132C469.757 150.416 470.195 149.702 470.629 148.991L469.584 148.353C469.151 149.063 468.714 149.774 468.273 150.488L469.315 151.132ZM471.918 146.862C472.349 146.145 472.776 145.43 473.199 144.717L472.146 144.092C471.724 144.803 471.299 145.516 470.868 146.231L471.918 146.862ZM474.493 142.519C474.919 141.79 475.342 141.062 475.759 140.338L474.698 139.727C474.282 140.449 473.861 141.174 473.436 141.901L474.493 142.519ZM476.997 138.173C477.407 137.452 477.812 136.733 478.212 136.018L477.144 135.42C476.745 136.133 476.341 136.849 475.933 137.568L476.997 138.173ZM479.456 133.779C479.865 133.036 480.27 132.297 480.669 131.561L479.593 130.977C479.195 131.71 478.791 132.448 478.383 133.188L479.456 133.779ZM481.853 129.363C482.243 128.633 482.628 127.907 483.008 127.185L481.924 126.615C481.545 127.335 481.161 128.059 480.773 128.786L481.853 129.363ZM484.195 124.909C484.586 124.155 484.971 123.405 485.35 122.659L484.259 122.104C483.88 122.847 483.497 123.595 483.108 124.346L484.195 124.909ZM486.472 120.435C486.845 119.69 487.213 118.949 487.575 118.212L486.476 117.672C486.115 118.406 485.749 119.144 485.377 119.888L486.472 120.435ZM488.698 115.907C489.067 115.144 489.429 114.387 489.785 113.635L488.679 113.11C488.324 113.86 487.963 114.614 487.595 115.375L488.698 115.907ZM490.836 111.396C491.196 110.624 491.548 109.858 491.894 109.098L490.78 108.59C490.435 109.347 490.084 110.11 489.726 110.88L490.836 111.396ZM492.942 106.777C493.284 106.01 493.62 105.251 493.949 104.498L492.827 104.008C492.499 104.757 492.165 105.514 491.824 106.278L492.942 106.777ZM494.934 102.219C495.275 101.421 495.608 100.632 495.934 99.8516L494.804 99.3801C494.479 100.157 494.148 100.943 493.808 101.738L494.934 102.219ZM496.887 97.5378C497.201 96.7659 497.508 96.0034 497.806 95.2506L496.668 94.7992C496.371 95.5486 496.066 96.3077 495.753 97.0762L496.887 97.5378ZM498.746 92.8459C499.05 92.0558 499.346 91.2772 499.632 90.5105L498.485 90.082C498.2 90.8448 497.906 91.6195 497.603 92.4058L498.746 92.8459ZM500.491 88.1746C500.788 87.3522 501.074 86.5448 501.35 85.7529L500.194 85.3503C499.92 86.1376 499.635 86.9404 499.339 87.7583L500.491 88.1746ZM502.145 83.4237C502.423 82.5913 502.689 81.7779 502.942 80.9841L501.775 80.6122C501.524 81.4004 501.26 82.2083 500.984 83.0354L502.145 83.4237ZM503.685 78.5919C503.936 77.7598 504.172 76.9523 504.393 76.1701L503.215 75.8371C502.996 76.612 502.762 77.4126 502.512 78.238L503.685 78.5919ZM505.055 73.7322C505.157 73.3412 505.254 72.9577 505.348 72.5819L504.159 72.2871C504.067 72.6583 503.971 73.0373 503.87 73.4239L505.055 73.7322ZM505.348 72.5819C505.453 72.159 505.554 71.7375 505.653 71.3175L504.46 71.0383C504.363 71.4531 504.263 71.8693 504.159 72.2871L505.348 72.5819ZM506.204 68.8155C506.374 67.9875 506.533 67.1655 506.678 66.3496L505.472 66.1347C505.329 66.9396 505.173 67.7508 505.004 68.5681L506.204 68.8155ZM507.081 63.896C507.209 63.0373 507.324 62.1856 507.425 61.341L506.209 61.1958C506.109 62.0282 505.997 62.8678 505.87 63.7146L507.081 63.896ZM507.686 58.8291C507.76 57.9985 507.82 57.1753 507.868 56.3594L506.645 56.2888C506.599 57.092 506.539 57.9027 506.467 58.7208L507.686 58.8291ZM507.974 53.7786C507.995 52.9267 508.001 52.0834 507.993 51.2487L506.769 51.2603C506.776 52.081 506.77 52.9106 506.75 53.7487L507.974 53.7786ZM507.927 48.7611C507.889 47.8937 507.835 47.0361 507.767 46.1885L506.546 46.2874C506.614 47.1198 506.666 47.9624 506.704 48.8149L507.927 48.7611ZM507.516 43.676C507.416 42.835 507.301 42.0045 507.171 41.1846L505.961 41.376C506.089 42.1802 506.202 42.9951 506.3 43.8206L507.516 43.676ZM506.719 38.6614C506.553 37.832 506.372 37.0143 506.176 36.2086L504.986 36.4982C505.178 37.2875 505.356 38.0888 505.518 38.9018L506.719 38.6614ZM505.52 33.7449C505.282 32.9227 505.028 32.114 504.759 31.3189L503.599 31.7113C503.862 32.4892 504.11 33.2807 504.343 34.0856L505.52 33.7449ZM503.899 28.9555C503.586 28.1508 503.257 27.3614 502.912 26.5874L501.793 27.0856C502.13 27.8417 502.452 28.6133 502.758 29.4L503.899 28.9555ZM501.833 24.3123C501.445 23.5434 501.042 22.7913 500.624 22.0564L499.56 22.6617C499.968 23.3787 500.361 24.1127 500.74 24.8635L501.833 24.3123ZM499.315 19.8847C498.855 19.1636 498.38 18.461 497.891 17.7772L496.895 18.4894C497.372 19.1557 497.834 19.8405 498.283 20.5435L499.315 19.8847ZM496.354 15.7452C495.821 15.0796 495.274 14.4342 494.715 13.8095L493.803 14.6265C494.347 15.2343 494.879 15.8623 495.398 16.5104L496.354 15.7452ZM492.956 11.955C492.352 11.3543 491.736 10.7759 491.108 10.2202L490.296 11.1372C490.906 11.677 491.505 12.239 492.092 12.823L492.956 11.955ZM489.14 8.58211C488.469 8.05742 487.786 7.55723 487.094 7.08193L486.401 8.09146C487.072 8.55233 487.734 9.03755 488.386 9.54676L489.14 8.58211ZM484.936 5.70022C484.204 5.26388 483.462 4.85435 482.711 4.47206L482.156 5.56311C482.882 5.93308 483.6 6.32961 484.31 6.75231L484.936 5.70022ZM480.391 3.38721C479.605 3.05247 478.812 2.74689 478.014 2.47094L477.614 3.62832C478.385 3.89483 479.151 4.1901 479.911 4.51373L480.391 3.38721ZM475.565 1.72256C474.739 1.5028 473.908 1.31442 473.075 1.15794L472.849 2.36146C473.652 2.51227 474.453 2.69389 475.25 2.90591L475.565 1.72256ZM470.543 0.782137C469.694 0.689385 468.843 0.629881 467.992 0.604146L467.955 1.82813C468.774 1.85288 469.592 1.91013 470.41 1.99944L470.543 0.782137ZM465.431 0.629228C464.58 0.671875 463.731 0.748928 462.884 0.860906L463.045 2.07487C463.858 1.96729 464.674 1.89323 465.493 1.85223L465.431 0.629228ZM460.357 1.30159C459.529 1.48163 458.704 1.69623 457.886 1.94587L458.244 3.1171C459.03 2.87729 459.821 2.67115 460.617 2.49821L460.357 1.30159ZM455.459 2.79737C454.677 3.10852 453.902 3.45322 453.135 3.83187L453.678 4.92975C454.415 4.5656 455.16 4.23425 455.912 3.93522L455.459 2.79737ZM450.869 5.06639C450.153 5.49455 449.445 5.95422 448.748 6.44574L449.454 7.44648C450.126 6.97266 450.807 6.52985 451.497 6.11764L450.869 5.06639ZM446.693 8.0137C446.053 8.54044 445.423 9.09609 444.805 9.68093L445.647 10.5703C446.245 10.0047 446.853 9.46777 447.471 8.95919L446.693 8.0137ZM442.992 11.5174C442.431 12.1252 441.882 12.7592 441.344 13.4197L442.294 14.1928C442.815 13.5517 443.349 12.9369 443.892 12.348L442.992 11.5174ZM439.787 15.4539C439.301 16.1303 438.825 16.8307 438.363 17.5554L439.395 18.2144C439.846 17.5085 440.308 16.8268 440.781 16.1691L439.787 15.4539ZM437.059 19.7199C436.639 20.4596 436.231 21.2217 435.835 22.0065L436.929 22.5577C437.315 21.7907 437.714 21.0464 438.124 20.3247L437.059 19.7199ZM434.77 24.2432C434.426 25.0083 434.093 25.7928 433.772 26.5971L434.909 27.051C435.224 26.2627 435.55 25.4942 435.887 24.7454L434.77 24.2432ZM432.875 28.983C432.603 29.7539 432.34 30.5415 432.089 31.3457L433.257 31.7114C433.505 30.9212 433.762 30.1478 434.03 29.3911L432.875 28.983ZM431.366 33.8088C431.145 34.6115 430.935 35.4297 430.735 36.2634L431.926 36.5489C432.123 35.7279 432.33 34.9227 432.547 34.133L431.366 33.8088ZM430.193 38.688C430.021 39.5104 429.86 40.347 429.709 41.1979L430.914 41.4125C431.064 40.5731 431.223 39.7481 431.392 38.9376L430.193 38.688ZM429.294 43.7289C429.174 44.5299 429.063 45.3429 428.961 46.1679L430.176 46.319C430.277 45.5039 430.387 44.701 430.505 43.9102L429.294 43.7289ZM428.679 48.6791C428.595 49.5282 428.519 50.3894 428.452 51.2628L429.673 51.3559C429.739 50.4919 429.814 49.6402 429.898 48.8007L428.679 48.6791ZM428.29 53.7376C428.245 54.5544 428.208 55.3814 428.179 56.2185L429.403 56.261C429.432 55.4319 429.468 54.6132 429.513 53.8048L428.29 53.7376ZM428.116 58.7607C428.103 59.6184 428.099 60.4863 428.102 61.3646L429.327 61.3596C429.323 60.489 429.328 59.6289 429.341 58.7791L428.116 58.7607ZM428.133 63.8158C428.151 64.6344 428.175 65.4616 428.207 66.2975L429.431 66.2513C429.399 65.422 429.375 64.6015 429.358 63.7898L428.133 63.8158ZM428.323 68.8315C428.37 69.6848 428.423 70.5469 428.484 71.4177L429.705 71.3324C429.645 70.4679 429.592 69.6122 429.546 68.7654L428.323 68.8315ZM428.675 73.8997C428.744 74.7105 428.819 75.5286 428.9 76.3542L430.118 76.2344C430.038 75.4143 429.964 74.6018 429.896 73.7966L428.675 73.8997ZM429.163 78.853C429.257 79.6933 429.357 80.5411 429.464 81.3963L430.679 81.2441C430.573 80.3941 430.473 79.5517 430.38 78.7168L429.163 78.853ZM429.804 83.9716C429.914 84.7682 430.03 85.571 430.152 86.3801L431.362 86.1983C431.242 85.3938 431.126 84.5956 431.017 83.8038L429.804 83.9716ZM430.533 88.8263C430.666 89.6481 430.805 90.4761 430.949 91.3105L432.156 91.1016C432.012 90.2716 431.874 89.448 431.742 88.6308L430.533 88.8263ZM431.4 93.8328C431.557 94.6795 431.719 95.5326 431.887 96.3921L433.088 96.1571C432.921 95.3019 432.76 94.4531 432.605 93.6107L431.4 93.8328ZM432.365 98.7752C432.529 99.5749 432.698 100.38 432.873 101.191L434.07 100.933C433.896 100.126 433.728 99.3246 433.564 98.5286L432.365 98.7752ZM433.413 103.639C433.598 104.46 433.788 105.287 433.983 106.119L435.175 105.839C434.981 105.011 434.791 104.187 434.607 103.37L433.413 103.639ZM434.585 108.633C434.688 109.055 434.793 109.478 434.899 109.902L436.087 109.606C435.982 109.184 435.878 108.762 435.775 108.342L434.585 108.633ZM436.094 109.641C436.023 109.262 435.94 108.867 435.846 108.455L434.652 108.729C434.743 109.126 434.823 109.506 434.891 109.867L436.094 109.641ZM435.204 105.999C434.981 105.229 434.728 104.418 434.447 103.57L433.285 103.956C433.562 104.79 433.81 105.586 434.028 106.34L435.204 105.999ZM433.616 101.189C433.342 100.437 433.048 99.6611 432.737 98.8644L431.596 99.3104C431.905 100.099 432.194 100.865 432.465 101.608L433.616 101.189ZM431.79 96.5152C431.479 95.7639 431.153 94.997 430.813 94.2157L429.69 94.704C430.027 95.479 430.35 96.2395 430.659 96.9839L431.79 96.5152ZM429.796 91.9259C429.455 91.1746 429.102 90.4121 428.738 89.6394L427.63 90.1616C427.992 90.9289 428.342 91.6861 428.68 92.4319L429.796 91.9259ZM427.66 87.3923C427.296 86.6467 426.922 85.893 426.539 85.1324L425.445 85.6836C425.826 86.4396 426.198 87.1885 426.559 87.9293L427.66 87.3923ZM425.404 82.9158C425.021 82.1786 424.629 81.4358 424.229 80.6882L423.149 81.266C423.547 82.0092 423.936 82.7477 424.317 83.4805L425.404 82.9158ZM423.039 78.4959C422.638 77.7682 422.23 77.0368 421.815 76.3025L420.749 76.9054C421.162 77.6356 421.568 78.3628 421.966 79.0863L423.039 78.4959ZM420.571 74.1325C420.154 73.4147 419.73 72.6948 419.3 71.9736L418.248 72.6009C418.676 73.3181 419.097 74.0339 419.512 74.7476L420.571 74.1325ZM418.002 69.8273C417.569 69.1194 417.129 68.4109 416.684 67.7023L415.647 68.3541C416.09 69.0586 416.527 69.7631 416.958 70.4669L418.002 69.8273ZM415.334 65.5838C414.883 64.8859 414.427 64.1886 413.965 63.4924L412.945 64.1691C413.404 64.861 413.857 65.5542 414.305 66.248L415.334 65.5838ZM412.565 61.4081C412.096 60.7199 411.622 60.0335 411.143 59.3495L410.14 60.0518C410.616 60.7315 411.087 61.4136 411.553 62.0975L412.565 61.4081ZM409.692 57.3057C409.204 56.6278 408.711 55.9527 408.213 55.2813L407.23 56.0104C407.724 56.6773 408.213 57.3477 408.698 58.0213L409.692 57.3057ZM406.707 53.2788C406.2 52.6139 405.687 51.9532 405.171 51.2973L404.209 52.0548C404.721 52.7058 405.23 53.3618 405.734 54.0219L406.707 53.2788ZM403.604 49.3383C403.077 48.6897 402.545 48.0464 402.009 47.4091L401.072 48.197C401.603 48.829 402.131 49.4672 402.654 50.1108L403.604 49.3383ZM400.375 45.4979C399.826 44.8673 399.273 44.2436 398.716 43.6272L397.808 44.4479C398.359 45.0586 398.907 45.6768 399.451 46.3019L400.375 45.4979ZM397.01 41.7739C396.436 41.163 395.859 40.5603 395.278 39.9667L394.403 40.8232C394.978 41.4107 395.549 42.0072 396.117 42.6122L397.01 41.7739ZM393.497 38.187C392.896 37.5993 392.291 37.0216 391.683 36.4547L390.848 37.3505C391.449 37.9106 392.047 38.4816 392.641 39.0628L393.497 38.187ZM389.821 34.7636C389.189 34.2042 388.554 33.6569 387.915 33.1225L387.129 34.0615C387.759 34.5884 388.386 35.1283 389.01 35.6805L389.821 34.7636ZM385.964 31.5382C385.299 31.0144 384.63 30.5051 383.958 30.0112L383.233 30.9978C383.893 31.4834 384.552 31.9846 385.207 32.5005L385.964 31.5382ZM381.907 28.5577C381.205 28.0794 380.5 27.6185 379.792 27.176L379.143 28.2143C379.836 28.6479 380.528 29.1 381.217 29.5696L381.907 28.5577ZM377.628 25.8859C376.888 25.4665 376.145 25.0681 375.4 24.6916L374.848 25.7846C375.575 26.1519 376.3 26.5411 377.024 26.9512L377.628 25.8859ZM373.113 23.61C372.335 23.2671 371.555 22.9491 370.773 22.6572L370.345 23.8045C371.104 24.0878 371.862 24.3968 372.62 24.7305L373.113 23.61ZM368.365 21.8445C367.553 21.5994 366.738 21.3836 365.922 21.1984L365.651 22.3926C366.438 22.5712 367.225 22.7797 368.011 23.0169L368.365 21.8445ZM363.414 20.7278C362.574 20.6035 361.732 20.5131 360.89 20.458L360.81 21.68C361.618 21.7328 362.427 21.8196 363.235 21.9392L363.414 20.7278ZM358.34 20.4008C357.494 20.4187 356.647 20.4737 355.801 20.5673L355.936 21.7844C356.745 21.6948 357.556 21.6422 358.366 21.6251L358.34 20.4008ZM353.276 20.9634C352.455 21.1307 351.635 21.3357 350.817 21.5799L351.167 22.7533C351.951 22.5195 352.735 22.3233 353.52 22.1633L353.276 20.9634ZM348.385 22.424C347.619 22.7282 346.854 23.068 346.091 23.4445L346.633 24.5425C347.367 24.1804 348.101 23.8541 348.837 23.5623L348.385 22.424ZM343.833 24.6721C343.129 25.0904 342.427 25.5413 341.728 26.0254L342.425 27.0321C343.102 26.5637 343.779 26.1283 344.459 25.7248L343.833 24.6721ZM339.661 27.561C339.026 28.0652 338.393 28.598 337.763 29.1599L338.578 30.0738C339.191 29.527 339.806 29.0093 340.422 28.52L339.661 27.561ZM335.881 30.9336C335.31 31.5008 334.741 32.0928 334.175 32.7102L335.078 33.5378C335.632 32.934 336.187 32.3557 336.744 31.8022L335.881 30.9336ZM332.497 34.6233C332.219 34.9548 331.941 35.2927 331.663 35.637L332.617 36.405C332.889 36.0672 333.162 35.7359 333.435 35.411L332.497 34.6233ZM331.56 35.8267C331.426 36.2266 331.296 36.6275 331.17 37.0297L332.339 37.3955C332.462 37.001 332.59 36.6075 332.721 36.2152L331.56 35.8267ZM330.462 39.4557C330.241 40.2688 330.036 41.0862 329.846 41.9078L331.04 42.1832C331.226 41.3767 331.427 40.5743 331.644 39.7763L330.462 39.4557ZM329.324 44.3849C329.164 45.2146 329.021 46.0483 328.892 46.8859L330.102 47.0718C330.229 46.249 330.37 45.4302 330.526 44.6154L329.324 44.3849ZM328.553 49.4001C328.456 50.2256 328.374 51.0546 328.306 51.8869L329.527 51.9864C329.593 51.1682 329.674 50.3533 329.769 49.542L328.553 49.4001ZM328.145 54.3935C328.105 55.2323 328.08 56.0741 328.068 56.919L329.292 56.936C329.304 56.1046 329.329 55.2764 329.368 54.4514L328.145 54.3935ZM328.074 59.4624C328.09 60.3131 328.12 61.1666 328.163 62.0228L329.386 61.9609C329.344 61.1175 329.314 60.277 329.299 59.4395L328.074 59.4624ZM328.328 64.5197C328.394 65.3435 328.473 66.1695 328.565 66.9977L329.782 66.8636C329.692 66.047 329.614 65.2327 329.548 64.421L328.328 64.5197ZM328.875 69.4887C328.991 70.3211 329.119 71.1555 329.259 71.9919L330.466 71.7899C330.328 70.9646 330.202 70.1413 330.088 69.3201L328.875 69.4887ZM329.714 74.5064C329.878 75.3464 330.053 76.1881 330.241 77.0315L331.436 76.7657C331.251 75.9327 331.078 75.1014 330.916 74.272L329.714 74.5064ZM330.804 79.4288C331.003 80.2292 331.211 81.031 331.431 81.834L332.612 81.5117C332.395 80.7178 332.189 79.9253 331.993 79.1343L330.804 79.4288ZM332.119 84.2466C332.359 85.052 332.609 85.8585 332.869 86.666L334.034 86.2904C333.777 85.4915 333.53 84.6938 333.293 83.8973L332.119 84.2466ZM333.68 89.0913C333.96 89.9007 334.251 90.711 334.551 91.522L335.699 91.0967C335.402 90.2936 335.114 89.4915 334.837 88.6905L333.68 89.0913ZM335.429 93.8218C335.73 94.5873 336.039 95.3535 336.357 96.1201L337.488 95.6507C337.173 94.8911 336.866 94.1322 336.569 93.374L335.429 93.8218ZM337.338 98.4216C337.674 99.1891 338.018 99.9571 338.371 100.725L339.484 100.215C339.134 99.4529 338.793 98.6917 338.46 97.931L337.338 98.4216ZM339.454 103.031C339.824 103.8 340.202 104.569 340.589 105.338L341.683 104.788C341.3 104.026 340.925 103.263 340.558 102.501L339.454 103.031ZM341.736 107.573C342.116 108.299 342.503 109.025 342.897 109.751L343.973 109.166C343.582 108.445 343.197 107.725 342.82 107.005L341.736 107.573ZM344.103 111.928C344.513 112.653 344.929 113.379 345.353 114.104L346.41 113.486C345.99 112.766 345.576 112.046 345.17 111.326L344.103 111.928ZM346.646 116.279C347.084 117.004 347.529 117.729 347.981 118.453L349.02 117.804C348.571 117.085 348.129 116.366 347.694 115.646L346.646 116.279ZM349.359 120.625C349.806 121.318 350.26 122.012 350.72 122.705L351.74 122.027C351.283 121.339 350.833 120.65 350.388 119.961L349.359 120.625ZM352.102 124.756C352.568 125.439 353.041 126.122 353.52 126.804L354.522 126.1C354.046 125.422 353.576 124.744 353.113 124.065L352.102 124.756ZM354.975 128.848C355.466 129.529 355.963 130.209 356.467 130.889L357.451 130.16C356.951 129.485 356.456 128.808 355.968 128.132L354.975 128.848ZM357.994 132.925C358.509 133.603 359.03 134.28 359.557 134.956L360.523 134.203C359.999 133.531 359.481 132.858 358.969 132.184L357.994 132.925ZM361.109 136.924C361.621 137.566 362.139 138.207 362.662 138.847L363.61 138.073C363.09 137.436 362.576 136.798 362.066 136.16L361.109 136.924ZM364.247 140.765C364.78 141.404 365.319 142.041 365.862 142.678L366.793 141.883C366.253 141.249 365.717 140.615 365.186 139.98L364.247 140.765ZM367.509 144.584C368.063 145.219 368.622 145.852 369.186 146.484L370.1 145.669C369.539 145.04 368.983 144.41 368.431 143.779L367.509 144.584ZM370.894 148.378C371.466 149.006 372.044 149.632 372.626 150.258L373.522 149.424C372.943 148.801 372.369 148.177 371.799 147.553L370.894 148.378ZM374.317 152.056C374.885 152.655 375.458 153.252 376.035 153.848L376.915 152.996C376.34 152.403 375.771 151.808 375.205 151.213L374.317 152.056ZM377.78 155.631C378.366 156.225 378.957 156.817 379.551 157.408L380.414 156.539C379.822 155.951 379.235 155.361 378.651 154.771L377.78 155.631ZM381.349 159.176C381.952 159.763 382.56 160.35 383.173 160.935L384.019 160.05C383.409 159.467 382.804 158.884 382.203 158.298L381.349 159.176ZM385.022 162.686C385.638 163.264 386.258 163.84 386.883 164.415L387.712 163.514C387.09 162.942 386.473 162.368 385.86 161.793L385.022 162.686ZM388.711 166.083C389.324 166.638 389.941 167.191 390.563 167.742L391.376 166.827C390.757 166.277 390.143 165.727 389.532 165.175L388.711 166.083ZM392.437 169.392C393.066 169.941 393.698 170.488 394.335 171.033L395.132 170.103C394.498 169.56 393.868 169.016 393.242 168.47L392.437 169.392ZM396.254 172.664C396.898 173.206 397.546 173.746 398.197 174.285L398.977 173.341C398.329 172.805 397.684 172.267 397.043 171.727L396.254 172.664ZM400.161 175.896C400.819 176.43 401.48 176.963 402.145 177.495L402.91 176.538C402.247 176.009 401.588 175.478 400.933 174.946L400.161 175.896ZM404.088 179.033C404.739 179.544 405.393 180.053 406.051 180.561L406.799 179.592C406.144 179.086 405.493 178.579 404.844 178.07L404.088 179.033ZM408.034 182.078C408.698 182.582 409.365 183.085 410.036 183.585L410.768 182.604C410.1 182.105 409.435 181.605 408.774 181.103L408.034 182.078ZM412.058 185.081C412.735 185.577 413.415 186.072 414.099 186.565L414.815 185.571C414.134 185.081 413.456 184.588 412.782 184.093L412.058 185.081ZM416.159 188.037C416.849 188.526 417.542 189.013 418.238 189.498L418.938 188.493C418.245 188.01 417.554 187.525 416.867 187.038L416.159 188.037ZM420.302 190.924C420.985 191.391 421.671 191.857 422.36 192.321L423.044 191.305C422.358 190.843 421.675 190.379 420.994 189.913L420.302 190.924ZM424.435 193.706C425.129 194.166 425.827 194.624 426.527 195.08L427.195 194.053C426.497 193.599 425.803 193.143 425.111 192.685L424.435 193.706ZM428.636 196.441C429.341 196.892 430.05 197.342 430.761 197.789L431.413 196.752C430.705 196.307 429.999 195.859 429.296 195.409L428.636 196.441ZM432.904 199.124C433.62 199.568 434.34 200.008 435.062 200.447L435.698 199.4C434.978 198.963 434.261 198.524 433.547 198.083L432.904 199.124ZM437.237 201.756C437.949 202.181 438.665 202.604 439.382 203.025L440.002 201.969C439.287 201.55 438.574 201.128 437.864 200.705L437.237 201.756ZM441.537 204.278C442.258 204.694 442.982 205.107 443.707 205.518L444.311 204.452C443.588 204.043 442.867 203.631 442.149 203.217L441.537 204.278ZM445.892 206.744C446.623 207.15 447.356 207.554 448.092 207.956L448.679 206.881C447.946 206.481 447.215 206.079 446.487 205.674L445.892 206.744ZM450.305 209.155C451.046 209.552 451.788 209.946 452.533 210.339L453.104 209.255C452.362 208.864 451.622 208.471 450.884 208.075L450.305 209.155ZM454.776 211.509C455.525 211.896 456.277 212.281 457.031 212.664L457.585 211.572C456.834 211.191 456.085 210.807 455.338 210.421L454.776 211.509ZM459.257 213.782C460.001 214.153 460.747 214.521 461.496 214.887L462.033 213.786C461.288 213.422 460.544 213.055 459.803 212.686L459.257 213.782ZM463.748 215.976C464.5 216.337 465.255 216.695 466.012 217.051L466.533 215.943C465.779 215.588 465.027 215.231 464.277 214.872L463.748 215.976ZM468.289 218.111C469.05 218.461 469.813 218.809 470.578 219.155L471.082 218.039C470.32 217.695 469.56 217.348 468.801 216.998L468.289 218.111ZM472.88 220.184C473.649 220.524 474.42 220.862 475.194 221.197L475.681 220.074C474.91 219.74 474.142 219.403 473.376 219.064L472.88 220.184ZM477.519 222.195C478.284 222.52 479.052 222.842 479.821 223.162L480.291 222.031C479.525 221.712 478.76 221.391 477.998 221.068L477.519 222.195ZM482.132 224.112C482.904 224.426 483.678 224.737 484.453 225.046L484.906 223.908C484.133 223.6 483.362 223.29 482.593 222.977L482.132 224.112ZM486.786 225.964C487.565 226.267 488.347 226.568 489.13 226.866L489.565 225.721C488.785 225.424 488.007 225.125 487.23 224.823L486.786 225.964ZM491.484 227.751C492.27 228.043 493.058 228.333 493.848 228.619L494.266 227.468C493.479 227.183 492.694 226.894 491.91 226.603L491.484 227.751ZM496.223 229.471C497.016 229.752 497.811 230.03 498.608 230.306L499.008 229.148C498.214 228.874 497.422 228.597 496.632 228.317L496.223 229.471ZM500.979 231.115C501.768 231.381 502.558 231.644 503.35 231.904L503.733 230.741C502.943 230.482 502.156 230.219 501.37 229.955L500.979 231.115ZM505.731 232.676C506.527 232.931 507.323 233.182 508.122 233.431L508.486 232.262C507.691 232.014 506.897 231.764 506.105 231.51L505.731 232.676ZM510.521 234.168C511.322 234.411 512.125 234.651 512.93 234.888L513.275 233.713C512.474 233.477 511.675 233.238 510.876 232.996L510.521 234.168ZM515.347 235.589C516.154 235.82 516.963 236.048 517.773 236.273L518.1 235.093C517.293 234.869 516.488 234.642 515.683 234.412L515.347 235.589ZM520.207 236.938C521.016 237.156 521.827 237.371 522.638 237.582L522.947 236.397C522.138 236.186 521.331 235.973 520.525 235.756L520.207 236.938ZM525.06 238.203C525.868 238.407 526.678 238.608 527.489 238.805L527.779 237.616C526.971 237.419 526.165 237.219 525.359 237.016L525.06 238.203ZM529.926 239.389C530.74 239.581 531.555 239.769 532.371 239.954L532.642 238.76C531.829 238.576 531.017 238.388 530.207 238.197L529.926 239.389ZM534.823 240.501C535.642 240.68 536.462 240.855 537.283 241.028L537.534 239.83C536.717 239.658 535.9 239.483 535.085 239.304L534.823 240.501ZM539.749 241.536C540.573 241.702 541.397 241.865 542.223 242.024L542.455 240.822C541.633 240.663 540.811 240.501 539.991 240.336L539.749 241.536ZM544.703 242.493C545.523 242.645 546.343 242.793 547.165 242.938L547.377 241.732C546.559 241.587 545.742 241.44 544.926 241.289L544.703 242.493ZM549.63 243.362C550.453 243.501 551.277 243.636 552.102 243.767L552.295 242.558C551.473 242.427 550.653 242.292 549.833 242.155L549.63 243.362ZM554.58 244.152C555.407 244.277 556.235 244.399 557.064 244.517L557.237 243.305C556.412 243.187 555.587 243.066 554.763 242.942L554.58 244.152ZM559.554 244.862C560.385 244.974 561.217 245.082 562.05 245.186L562.203 243.971C561.374 243.867 560.545 243.76 559.717 243.648L559.554 244.862ZM564.552 245.49C565.386 245.588 566.222 245.683 567.059 245.773L567.191 244.556C566.358 244.466 565.526 244.372 564.694 244.274L564.552 245.49ZM569.56 246.035C570.389 246.117 571.218 246.197 572.049 246.273L572.16 245.054C571.333 244.978 570.507 244.899 569.682 244.816L569.56 246.035ZM574.542 246.491C575.374 246.56 576.206 246.626 577.04 246.688L577.131 245.467C576.301 245.405 575.472 245.339 574.643 245.271L574.542 246.491ZM579.543 246.864C580.378 246.919 581.214 246.97 582.05 247.018L582.12 245.795C581.287 245.748 580.455 245.696 579.623 245.642L579.543 246.864ZM584.562 247.151C585.4 247.192 586.239 247.229 587.078 247.263L587.127 246.039C586.291 246.006 585.456 245.969 584.621 245.928L584.562 247.151ZM589.598 247.352C590.439 247.379 591.28 247.401 592.122 247.42L592.15 246.196C591.311 246.177 590.474 246.155 589.636 246.128L589.598 247.352ZM594.628 247.466C595.46 247.477 596.293 247.485 597.127 247.489L597.133 246.265C596.303 246.26 595.473 246.253 594.645 246.241L594.628 247.466ZM599.629 247.491C600.464 247.488 601.3 247.481 602.135 247.47L602.12 246.246C601.288 246.256 600.456 246.263 599.625 246.266L599.629 247.491ZM604.645 247.428C605.481 247.41 606.319 247.388 607.157 247.363L607.12 246.139C606.286 246.164 605.452 246.186 604.618 246.204L604.645 247.428ZM609.672 247.276C610.511 247.243 611.351 247.206 612.19 247.166L612.131 245.943C611.295 245.983 610.46 246.019 609.624 246.052L609.672 247.276ZM614.711 247.033C615.552 246.985 616.393 246.933 617.235 246.877L617.154 245.655C616.316 245.711 615.479 245.762 614.641 245.81L614.711 247.033ZM619.726 246.701C620.556 246.638 621.385 246.572 622.215 246.502L622.113 245.282C621.286 245.352 620.46 245.418 619.634 245.48L619.726 246.701ZM624.707 246.281C625.538 246.203 626.369 246.122 627.201 246.037L627.076 244.819C626.248 244.904 625.42 244.985 624.593 245.062L624.707 246.281ZM629.696 245.77C630.528 245.677 631.36 245.58 632.193 245.479L632.046 244.264C631.217 244.364 630.388 244.46 629.56 244.553L629.696 245.77ZM634.692 245.166C635.525 245.057 636.359 244.945 637.192 244.828L637.023 243.616C636.193 243.731 635.363 243.843 634.534 243.951L634.692 245.166ZM639.694 244.467C640.528 244.343 641.363 244.215 642.197 244.083L642.006 242.873C641.175 243.005 640.344 243.133 639.514 243.256L639.694 244.467ZM644.656 243.682C645.475 243.544 646.294 243.403 647.114 243.258L646.9 242.052C646.085 242.197 645.269 242.337 644.454 242.474L644.656 243.682ZM649.572 242.811C650.392 242.658 651.211 242.501 652.031 242.34L651.795 241.139C650.979 241.299 650.163 241.455 649.347 241.607L649.572 242.811ZM654.491 241.846C655.311 241.677 656.131 241.505 656.951 241.328L656.693 240.131C655.877 240.307 655.06 240.479 654.244 240.647L654.491 241.846ZM659.412 240.786C660.232 240.602 661.052 240.413 661.873 240.22L661.593 239.028C660.776 239.22 659.959 239.408 659.143 239.592L659.412 240.786ZM664.334 239.63C665.154 239.43 665.975 239.225 666.795 239.016L666.493 237.829C665.676 238.037 664.859 238.241 664.043 238.441L664.334 239.63ZM669.21 238.389C670.011 238.177 670.811 237.962 671.612 237.742L671.288 236.561C670.491 236.78 669.694 236.995 668.897 237.205L669.21 238.389ZM674.014 237.072C674.815 236.844 675.615 236.613 676.416 236.377L676.07 235.203C675.273 235.437 674.476 235.667 673.679 235.894L674.014 237.072ZM678.817 235.659C679.617 235.416 680.418 235.168 681.218 234.917L680.851 233.749C680.054 233.999 679.257 234.245 678.461 234.488L678.817 235.659ZM683.618 234.151C684.418 233.891 685.217 233.628 686.017 233.36L685.628 232.199C684.832 232.465 684.036 232.727 683.24 232.986L683.618 234.151ZM688.415 232.545C689.214 232.269 690.013 231.989 690.812 231.706L690.402 230.552C689.607 230.834 688.811 231.113 688.016 231.387L688.415 232.545ZM693.18 230.852C693.955 230.568 694.73 230.281 695.505 229.989L695.074 228.843C694.302 229.133 693.531 229.419 692.759 229.702L693.18 230.852ZM697.828 229.104C698.602 228.804 699.376 228.501 700.15 228.194L699.698 227.056C698.928 227.362 698.157 227.664 697.386 227.961L697.828 229.104ZM702.47 227.261C703.243 226.946 704.016 226.627 704.789 226.304L704.316 225.175C703.547 225.496 702.778 225.814 702.008 226.127L702.47 227.261ZM707.106 225.323C707.878 224.993 708.65 224.658 709.421 224.319L708.928 223.197C708.16 223.535 707.392 223.868 706.623 224.198L707.106 225.323ZM711.735 223.289C712.505 222.942 713.276 222.591 714.046 222.236L713.533 221.124C712.766 221.478 711.999 221.827 711.232 222.173L711.735 223.289ZM716.355 221.158C717.106 220.803 717.856 220.445 718.606 220.083L718.074 218.98C717.327 219.341 716.58 219.698 715.833 220.051L716.355 221.158ZM720.83 218.996C721.57 218.63 722.311 218.261 723.051 217.887L722.499 216.794C721.762 217.166 721.025 217.534 720.287 217.898L720.83 218.996ZM725.27 216.754C726.009 216.373 726.748 215.988 727.486 215.598L726.915 214.515C726.18 214.903 725.444 215.286 724.708 215.666L725.27 216.754ZM729.7 214.419C730.438 214.022 731.175 213.621 731.911 213.216L731.322 212.143C730.588 212.546 729.854 212.946 729.12 213.341L729.7 214.419ZM734.12 211.99C734.856 211.577 735.591 211.16 736.326 210.74L735.718 209.677C734.986 210.096 734.254 210.511 733.521 210.922L734.12 211.99ZM738.53 209.466C739.263 209.037 739.997 208.604 740.73 208.168L740.103 207.116C739.373 207.55 738.643 207.981 737.912 208.408L738.53 209.466ZM742.873 206.878C743.575 206.452 744.276 206.022 744.976 205.589L744.332 204.548C743.634 204.979 742.936 205.407 742.238 205.831L742.873 206.878ZM747.076 204.278C747.776 203.837 748.475 203.392 749.173 202.944L748.512 201.913C747.816 202.36 747.12 202.803 746.423 203.242L747.076 204.278ZM751.267 201.588C751.964 201.132 752.661 200.672 753.357 200.209L752.679 199.189C751.985 199.651 751.291 200.109 750.597 200.563L751.267 201.588ZM755.445 198.807C756.14 198.336 756.835 197.862 757.529 197.383L756.834 196.375C756.142 196.852 755.45 197.325 754.758 197.794L755.445 198.807ZM759.61 195.936C760.303 195.45 760.995 194.96 761.687 194.466L760.975 193.469C760.286 193.961 759.596 194.449 758.906 194.934L759.61 195.936ZM763.76 192.973C764.451 192.471 765.141 191.966 765.83 191.456L765.103 190.472C764.416 190.979 763.729 191.482 763.041 191.982L763.76 192.973ZM767.798 189.991C768.453 189.499 769.108 189.003 769.762 188.504L769.02 187.531C768.368 188.028 767.716 188.522 767.063 189.012L767.798 189.991ZM771.723 186.997C772.376 186.49 773.028 185.981 773.68 185.467L772.923 184.505C772.273 185.017 771.623 185.524 770.973 186.029L771.723 186.997ZM775.634 183.917C776.284 183.396 776.934 182.872 777.584 182.345L776.811 181.394C776.164 181.92 775.517 182.442 774.869 182.961L775.634 183.917ZM779.53 180.751C780.178 180.216 780.825 179.678 781.472 179.136L780.685 178.197C780.041 178.737 779.396 179.274 778.75 179.806L779.53 180.751ZM783.41 177.499C784.056 176.949 784.7 176.396 785.345 175.84L784.544 174.913C783.902 175.468 783.26 176.019 782.617 176.566L783.41 177.499ZM787.275 174.159C787.918 173.595 788.56 173.027 789.201 172.456L788.387 171.542C787.748 172.111 787.108 172.676 786.467 173.238L787.275 174.159ZM791.038 170.808C791.644 170.261 792.249 169.71 792.854 169.156L792.026 168.253C791.424 168.805 790.821 169.354 790.217 169.899L791.038 170.808ZM794.665 167.484C795.269 166.923 795.871 166.359 796.473 165.791L795.633 164.9C795.034 165.466 794.433 166.028 793.832 166.587L794.665 167.484ZM798.277 164.079C798.878 163.505 799.478 162.928 800.077 162.347L799.225 161.467C798.628 162.046 798.03 162.622 797.431 163.194L798.277 164.079ZM801.873 160.594C802.471 160.007 803.068 159.416 803.665 158.821L802.801 157.954C802.206 158.546 801.611 159.135 801.015 159.721L801.873 160.594ZM805.452 157.028C806.048 156.427 806.642 155.822 807.236 155.214L806.36 154.359C805.768 154.965 805.175 155.567 804.582 156.167L805.452 157.028ZM809.015 153.38C809.607 152.766 810.198 152.147 810.789 151.526L809.902 150.682C809.313 151.302 808.723 151.918 808.133 152.531L809.015 153.38ZM812.559 149.65C813.115 149.058 813.67 148.462 814.225 147.863L813.326 147.031C812.774 147.628 812.22 148.222 811.666 148.813L812.559 149.65ZM815.884 146.059C816.436 145.455 816.988 144.848 817.539 144.238L816.63 143.417C816.081 144.026 815.531 144.631 814.98 145.233L815.884 146.059ZM819.189 142.397C819.739 141.781 820.288 141.161 820.836 140.538L819.917 139.729C819.37 140.35 818.823 140.968 818.275 141.582L819.189 142.397ZM822.479 138.66C823.025 138.031 823.571 137.399 824.117 136.764L823.188 135.966C822.644 136.6 822.099 137.23 821.554 137.857L822.479 138.66ZM825.75 134.849C826.294 134.207 826.838 133.563 827.38 132.915L826.441 132.129C825.9 132.775 825.359 133.417 824.816 134.057L825.75 134.849ZM829.005 130.962C829.546 130.308 830.086 129.651 830.626 128.99L829.677 128.216C829.139 128.874 828.601 129.53 828.061 130.182L829.005 130.962ZM832.242 127C832.78 126.333 833.317 125.663 833.853 124.99L832.896 124.227C832.361 124.898 831.825 125.566 831.289 126.231L832.242 127ZM835.428 123.002C835.929 122.365 836.43 121.725 836.931 121.083L835.964 120.33C835.465 120.971 834.966 121.609 834.466 122.245L835.428 123.002ZM838.429 119.146C838.928 118.498 839.427 117.846 839.924 117.192L838.949 116.451C838.453 117.103 837.956 117.753 837.459 118.399L838.429 119.146ZM841.414 115.222C841.911 114.562 842.406 113.899 842.901 113.234L841.918 112.503C841.425 113.167 840.931 113.828 840.436 114.486L841.414 115.222ZM844.383 111.229C844.876 110.558 845.368 109.884 845.86 109.207L844.87 108.487C844.379 109.162 843.888 109.835 843.396 110.504L844.383 111.229ZM847.333 107.168C847.824 106.486 848.313 105.8 848.802 105.112L847.804 104.403C847.316 105.089 846.828 105.773 846.339 106.454L847.333 107.168ZM850.267 103.038C850.754 102.344 851.241 101.647 851.726 100.947L850.721 100.249C850.236 100.947 849.751 101.642 849.264 102.334L850.267 103.038ZM853.182 98.8386C853.666 98.1328 854.15 97.4242 854.633 96.7127L853.62 96.0251C853.138 96.7348 852.655 97.4417 852.172 98.1456L853.182 98.8386ZM856.079 94.5693C856.536 93.8881 856.993 93.2042 857.448 92.5176L856.428 91.8404C855.973 92.5253 855.518 93.2075 855.062 93.887L856.079 94.5693ZM858.792 90.4827C859.239 89.8018 859.686 89.1184 860.131 88.4324L859.105 87.7651C858.66 88.4495 858.214 89.1313 857.768 89.8105L858.792 90.4827ZM861.467 86.3666C861.911 85.6754 862.355 84.9817 862.798 84.2854L861.765 83.628C861.323 84.3227 860.88 85.0148 860.437 85.7043L861.467 86.3666ZM864.125 82.1886C864.566 81.4871 865.007 80.783 865.447 80.0762L864.408 79.4288C863.969 80.1339 863.529 80.8364 863.088 81.5362L864.125 82.1886ZM866.766 77.9484C867.204 77.2364 867.643 76.5219 868.08 75.8048L867.034 75.1672C866.598 75.8827 866.161 76.5956 865.723 77.3059L866.766 77.9484ZM869.39 73.6455C869.826 72.9232 870.261 72.1982 870.695 71.4705L869.644 70.8428C869.21 71.5688 868.776 72.2922 868.341 73.0129L869.39 73.6455ZM871.996 69.2798C872.429 68.5469 872.861 67.8114 873.293 67.0733L872.236 66.4553C871.805 67.1918 871.374 67.9257 870.942 68.657L871.996 69.2798ZM874.585 64.8509C875.015 64.1074 875.444 63.3614 875.872 62.6126L874.81 62.0044C874.382 62.7515 873.954 63.496 873.525 64.2378L874.585 64.8509ZM877.138 60.3889C877.537 59.6857 877.934 58.9803 878.331 58.2726L877.263 57.6737C876.867 58.3799 876.47 59.0838 876.073 59.7855L877.138 60.3889ZM879.519 56.1424C879.915 55.43 880.31 54.7153 880.704 53.9982L879.631 53.4083C879.238 54.1239 878.844 54.8371 878.449 55.548L879.519 56.1424ZM881.884 51.8401C882.277 51.1184 882.669 50.3944 883.061 49.668L881.983 49.0871C881.592 49.8119 881.201 50.5345 880.809 51.2547L881.884 51.8401ZM884.233 47.4818C884.623 46.7508 885.013 46.0174 885.401 45.2816L884.319 44.7096C883.931 45.4439 883.542 46.1758 883.153 46.9054L884.233 47.4818ZM886.565 43.0673C886.953 42.3268 887.339 41.584 887.725 40.8389L886.638 40.2757C886.253 41.0194 885.867 41.7607 885.48 42.4997L886.565 43.0673ZM888.881 38.5962C889.266 37.8463 889.649 37.094 890.033 36.3393L888.941 35.785C888.558 36.5382 888.175 37.289 887.791 38.0375L888.881 38.5962ZM891.18 34.0683C891.561 33.3089 891.942 32.5471 892.323 31.783L891.226 31.2374C890.847 32.0001 890.467 32.7604 890.086 33.5184L891.18 34.0683ZM893.461 29.4834C893.84 28.7145 894.218 27.9431 894.596 27.1694L893.495 26.6326C893.118 27.4049 892.741 28.1747 892.363 28.9422L893.461 29.4834Z" fill="#B86B00"/>
</svg>
